<svg width="10" height="10" viewBox="0 0 10 10" fill="none" xmlns="http://www.w3.org/2000/svg">
<path fill-rule="evenodd" clip-rule="evenodd" d="M0.6 0.6V9.4H9.4V0.6H0.6ZM0.6 0H0V0.6V9.4V10H0.6H9.4H10V9.4V5V4.85V4.75V4.7V4.25V3.75V3.25V2.75V2.25V1.75V1.25V0.75V0.6V0.3V0.25V0.15V0H9.85H9.75H9.7H9.4H9.25H8.75H8.25H7.75H7.25H6.75H6.25H5.75H5.3H5.25H5.15H5H0.6ZM5 4.7V4.75V4.85V5H5.15H5.25H5.3V4.75H5.25V4.7H5ZM9.25 5V4.85V4.7H8.75V4.85V5H9.25ZM8.25 5V4.85V4.7H7.75V4.85V5H8.25ZM7.25 5V4.85V4.7H6.75V4.85V5H7.25ZM6.25 5V4.85V4.7H5.75V4.85V5H6.25ZM5 4.25H5.15H5.3V3.75H5.15H5V4.25ZM5 3.25H5.15H5.3V2.75H5.15H5V3.25ZM5 2.25H5.15H5.3V1.75H5.15H5V2.25ZM5 1.25H5.15H5.3V0.75H5.15H5V1.25ZM4 5.85H2.65C2.56716 5.85 2.5 5.91716 2.5 6C2.5 6.08284 2.56716 6.15 2.65 6.15H3.63787L1.15 8.63787V7.65C1.15 7.56716 1.08284 7.5 1 7.5C0.917157 7.5 0.85 7.56716 0.85 7.65V9C0.85 9.08284 0.917157 9.15 1 9.15H2.35C2.43284 9.15 2.5 9.08284 2.5 9C2.5 8.91716 2.43284 8.85 2.35 8.85H1.36213L3.85 6.36213V7.35C3.85 7.43284 3.91716 7.5 4 7.5C4.08284 7.5 4.15 7.43284 4.15 7.35V6C4.15 5.91716 4.08284 5.85 4 5.85Z" fill="#777777"/>
</svg>
