<svg width="15" height="15" viewBox="0 0 15 15" fill="none" xmlns="http://www.w3.org/2000/svg">
<path d="M1.15197 8.07748V13.3042M1.69583 13.848H6.92252M8.01022 13.848H14.3919V0.608085H1.15197V6.98978" stroke="#777777" stroke-width="0.5" stroke-linecap="round" stroke-linejoin="round"/>
<path d="M12.8473 2.23903C12.8674 2.239 12.887 2.24492 12.9037 2.25606C12.9204 2.26719 12.9334 2.28303 12.9411 2.30158C12.9488 2.32012 12.9508 2.34052 12.9469 2.36021C12.943 2.37989 12.9333 2.39797 12.9191 2.41214L9.13462 6.1964C9.1155 6.21487 9.0899 6.22508 9.06333 6.22485C9.03675 6.22462 9.01133 6.21396 8.99254 6.19517C8.97375 6.17638 8.96309 6.15096 8.96286 6.12438C8.96263 6.09781 8.97284 6.07221 8.99131 6.05309L12.7756 2.26883C12.785 2.25939 12.7962 2.2519 12.8085 2.24678C12.8208 2.24167 12.834 2.23904 12.8473 2.23903Z" fill="#777777"/>
<path d="M9.24325 4.4246H9.255C9.28169 4.42765 9.30607 4.44117 9.32279 4.46219C9.33952 4.48321 9.34721 4.51 9.34419 4.53669L9.17757 6.00912L10.65 5.8425C10.6767 5.83946 10.7036 5.84717 10.7246 5.86391C10.7456 5.88066 10.7592 5.90507 10.7622 5.93179C10.7652 5.95851 10.7575 5.98534 10.7408 6.00638C10.724 6.02742 10.6996 6.04095 10.6729 6.04399L9.07399 6.2248C9.05884 6.22654 9.04349 6.22485 9.02908 6.21983C9.01468 6.21482 9.00159 6.20662 8.9908 6.19584C8.98 6.18507 8.97178 6.172 8.96674 6.1576C8.9617 6.14321 8.95998 6.12786 8.96169 6.1127L9.14271 4.51399C9.14563 4.48937 9.15748 4.46668 9.17601 4.45021C9.19453 4.43373 9.21845 4.42462 9.24325 4.4246Z" fill="#777777"/>
<path d="M11.2791 2.38219V2.39395C11.2822 2.42064 11.2957 2.44502 11.3167 2.46174C11.3377 2.47846 11.3645 2.48616 11.3912 2.48314L12.8636 2.31652L12.697 3.78895C12.694 3.81567 12.7017 3.8425 12.7184 3.86354C12.7352 3.88458 12.7596 3.89811 12.7863 3.90115C12.813 3.90418 12.8399 3.89648 12.8609 3.87974C12.8819 3.86299 12.8955 3.83857 12.8985 3.81185L13.0793 2.21294C13.0811 2.19778 13.0794 2.18244 13.0744 2.16803C13.0693 2.15363 13.0611 2.14054 13.0504 2.12975C13.0396 2.11895 13.0265 2.11073 13.0121 2.10569C12.9977 2.10065 12.9824 2.09892 12.9672 2.10064L11.3685 2.28165C11.3439 2.28458 11.3212 2.29643 11.3047 2.31495C11.2883 2.33348 11.2791 2.3574 11.2791 2.38219Z" fill="#777777"/>
<path d="M8.01022 14.3918H6.92252V13.3041H8.01022V14.3918Z" fill="#EEEFEE"/>
<path d="M6.9225 13.2028H8.0104C8.03728 13.2028 8.06306 13.2135 8.08207 13.2325C8.10108 13.2515 8.11176 13.2773 8.11176 13.3042V14.3919C8.11176 14.4188 8.10108 14.4445 8.08207 14.4635C8.06306 14.4825 8.03728 14.4932 8.0104 14.4932H6.9227C6.89582 14.4932 6.87004 14.4825 6.85104 14.4635C6.83203 14.4445 6.82135 14.4188 6.82135 14.3919V13.3042C6.82135 13.2773 6.832 13.2516 6.85096 13.2326C6.86993 13.2136 6.89565 13.2029 6.9225 13.2028V13.2028ZM7.90885 13.4055H7.02385V14.2905H7.90905L7.90885 13.4055Z" fill="#777777"/>
<path d="M1.69583 14.3918H0.608127V13.3041H1.69583V14.3918Z" fill="#EEEFEE"/>
<path d="M0.608132 13.2028H1.69583C1.72271 13.2028 1.74849 13.2135 1.7675 13.2325C1.7865 13.2515 1.79718 13.2773 1.79718 13.3042V14.3919C1.79718 14.4188 1.7865 14.4445 1.7675 14.4635C1.74849 14.4825 1.72271 14.4932 1.69583 14.4932H0.608132C0.581252 14.4932 0.555473 14.4825 0.536466 14.4635C0.517459 14.4445 0.506781 14.4188 0.506781 14.3919V13.3042C0.506781 13.2773 0.517459 13.2515 0.536466 13.2325C0.555473 13.2135 0.581252 13.2028 0.608132 13.2028ZM1.59448 13.4055H0.709483V14.2905H1.59448V13.4055Z" fill="#777777"/>
<path d="M8.01022 8.07751H6.92252V6.98981H8.01022V8.07751Z" fill="#EEEFEE"/>
<path d="M6.9225 6.88843H8.0104C8.03728 6.88843 8.06306 6.89911 8.08207 6.91812C8.10108 6.93712 8.11176 6.9629 8.11176 6.98978V8.07748C8.11176 8.10436 8.10108 8.13014 8.08207 8.14915C8.06306 8.16816 8.03728 8.17883 8.0104 8.17883H6.9227C6.89582 8.17883 6.87004 8.16816 6.85104 8.14915C6.83203 8.13014 6.82135 8.10436 6.82135 8.07748V6.98978C6.82135 6.96294 6.832 6.93719 6.85096 6.91819C6.86993 6.89919 6.89565 6.88848 6.9225 6.88843ZM7.90885 7.09113H7.02385V7.97613H7.90905L7.90885 7.09113Z" fill="#777777"/>
<path d="M1.69583 8.07751H0.608127V6.98981H1.69583V8.07751Z" fill="#EEEFEE"/>
<path d="M0.6081 6.88849H1.6958C1.72268 6.88849 1.74846 6.89917 1.76746 6.91818C1.78647 6.93719 1.79715 6.96296 1.79715 6.98984V8.07754C1.79715 8.10442 1.78647 8.1302 1.76746 8.14921C1.74846 8.16822 1.72268 8.17889 1.6958 8.17889H0.6081C0.58122 8.17889 0.555441 8.16822 0.536434 8.14921C0.517427 8.1302 0.506749 8.10442 0.506749 8.07754V6.98984C0.506749 6.96296 0.517427 6.93719 0.536434 6.91818C0.555441 6.89917 0.58122 6.88849 0.6081 6.88849ZM1.59445 7.0912H0.709451V7.97619H1.59445V7.0912Z" fill="#777777"/>
<path d="M1.69579 7.4323H6.92249C6.94937 7.4323 6.97514 7.44298 6.99415 7.46199C7.01316 7.48099 7.02384 7.50677 7.02384 7.53365V7.97615H7.46634C7.49322 7.97615 7.519 7.98683 7.538 8.00584C7.55701 8.02485 7.56769 8.05063 7.56769 8.07751V13.3042C7.56769 13.3311 7.55701 13.3569 7.538 13.3759C7.519 13.3949 7.49322 13.4056 7.46634 13.4056H7.02384V13.8481C7.02384 13.8749 7.01316 13.9007 6.99415 13.9197C6.97514 13.9387 6.94937 13.9494 6.92249 13.9494H1.69579C1.66891 13.9494 1.64313 13.9387 1.62413 13.9197C1.60512 13.9007 1.59444 13.8749 1.59444 13.8481V13.4056H1.15174C1.12486 13.4056 1.09908 13.3949 1.08007 13.3759C1.06107 13.3569 1.05039 13.3311 1.05039 13.3042V8.07751C1.05039 8.05063 1.06107 8.02485 1.08007 8.00584C1.09908 7.98683 1.12486 7.97615 1.15174 7.97615H1.59444V7.53365C1.59444 7.50677 1.60512 7.48099 1.62413 7.46199C1.64313 7.44298 1.66891 7.4323 1.69579 7.4323ZM6.82113 7.635H1.79714V8.07751C1.79714 8.10439 1.78647 8.13016 1.76746 8.14917C1.74845 8.16818 1.72267 8.17886 1.69579 8.17886H1.25309V13.2028H1.69579C1.72267 13.2028 1.74845 13.2135 1.76746 13.2325C1.78647 13.2515 1.79714 13.2773 1.79714 13.3042V13.7467H6.82113V13.3042C6.82113 13.2773 6.83181 13.2515 6.85082 13.2325C6.86983 13.2135 6.89561 13.2028 6.92249 13.2028H7.36499V8.17886H6.92249C6.89561 8.17886 6.86983 8.16818 6.85082 8.14917C6.83181 8.13016 6.82113 8.10439 6.82113 8.07751V7.635Z" fill="#777777"/>
</svg>
