<svg width="15" height="15" viewBox="0 0 15 15" fill="none" xmlns="http://www.w3.org/2000/svg">
<g clip-path="url(#clip0)">
<path d="M14.3262 6.65062H14.2969V1.84594C14.2964 1.35649 14.1018 0.887218 13.7557 0.541135C13.4096 0.195052 12.9403 0.000434377 12.4508 0L11.3086 0C10.8192 0.000527333 10.3501 0.195154 10.0041 0.541176C9.65805 0.887199 9.46342 1.35635 9.46289 1.8457V2.83383H9.21152C9.18083 2.83386 9.15054 2.84076 9.12286 2.85402C9.09518 2.86728 9.07082 2.88657 9.05156 2.91047L8.90625 3.09211C8.58719 3.49102 8.39483 3.9763 8.35395 4.48547C8.18603 4.50008 8.02967 4.57705 7.91566 4.7012C7.80166 4.82535 7.73828 4.9877 7.73801 5.15625V5.57168C7.73799 5.59862 7.74329 5.62529 7.75359 5.65018C7.76389 5.67507 7.77899 5.69768 7.79804 5.71673C7.81709 5.73577 7.8397 5.75088 7.86459 5.76118C7.88948 5.77148 7.91615 5.77677 7.94309 5.77676H12.3296C12.3566 5.77677 12.3833 5.77148 12.4081 5.76118C12.433 5.75088 12.4556 5.73577 12.4747 5.71673C12.4937 5.69768 12.5088 5.67507 12.5191 5.65018C12.5294 5.62529 12.5347 5.59862 12.5347 5.57168V5.15625C12.5345 4.98769 12.4711 4.82534 12.3572 4.70116C12.2432 4.57699 12.0868 4.5 11.9189 4.48535C11.8782 3.97631 11.686 3.49112 11.3672 3.09223L11.2218 2.91082C11.2025 2.88687 11.1782 2.86753 11.1505 2.85425C11.1228 2.84096 11.0925 2.83406 11.0618 2.83406H10.8102V1.84594C10.8103 1.71378 10.8628 1.58706 10.9562 1.49363C11.0497 1.40019 11.1764 1.34769 11.3086 1.34766H12.4512C12.5832 1.34778 12.7098 1.40029 12.8032 1.49367C12.8966 1.58704 12.9491 1.71365 12.9492 1.8457V6.65039H6.71262C6.71262 6.64793 6.71262 6.64535 6.71262 6.64301C6.71274 6.4293 6.64836 6.22054 6.52788 6.04403C6.40741 5.86752 6.23645 5.7315 6.0374 5.65375C5.83834 5.576 5.62044 5.56015 5.41223 5.60828C5.20402 5.6564 5.01518 5.76626 4.87043 5.92348C4.70093 5.81504 4.50172 5.76242 4.30078 5.77301C4.20084 5.49088 4.01596 5.24663 3.77156 5.07385C3.52715 4.90107 3.23523 4.80824 2.93592 4.80812C2.63661 4.80801 2.34461 4.90061 2.10008 5.0732C1.85554 5.24579 1.67047 5.4899 1.57031 5.77195C1.33355 5.77877 1.1075 5.87218 0.934986 6.03448C0.762469 6.19678 0.655458 6.41671 0.634219 6.65262C0.462865 6.66276 0.301837 6.7379 0.183983 6.8627C0.0661284 6.9875 0.00032657 7.15257 0 7.32422L0 7.67578C0.00018613 7.85443 0.0712383 8.02572 0.197565 8.15204C0.323892 8.27837 0.495175 8.34942 0.673828 8.34961H0.703125V10.6934C0.70357 11.2546 0.860379 11.8047 1.15596 12.2818C1.45155 12.7589 1.87422 13.1442 2.37656 13.3945L2.16258 13.8995C2.0807 14.0929 2.079 14.3109 2.15787 14.5056C2.23673 14.7002 2.38969 14.8556 2.58311 14.9375C2.77652 15.0194 2.99453 15.0211 3.18919 14.9422C3.38385 14.8633 3.53921 14.7104 3.62109 14.517L3.96211 13.7109H11.0379L11.3791 14.5168C11.4627 14.7078 11.6182 14.8581 11.8118 14.9352C12.0055 15.0123 12.2218 15.0099 12.4137 14.9286C12.6056 14.8473 12.7577 14.6936 12.8371 14.5008C12.9164 14.308 12.9165 14.0918 12.8374 13.8989L12.6234 13.3945C13.1257 13.1442 13.5484 12.7589 13.844 12.2819C14.1396 11.8048 14.2964 11.2548 14.2969 10.6936V8.34984H14.3262C14.5049 8.34966 14.6762 8.27857 14.8025 8.1522C14.9289 8.02582 14.9999 7.85448 15 7.67578V7.32422C14.9998 7.14561 14.9287 6.97438 14.8024 6.84811C14.676 6.72183 14.5048 6.65081 14.3262 6.65062V6.65062ZM12.1246 5.15625V5.36719H8.14816V5.15625C8.14826 5.08635 8.17607 5.01934 8.22549 4.96991C8.27492 4.92048 8.34193 4.89267 8.41184 4.89258H11.8609C11.9308 4.89267 11.9978 4.92048 12.0472 4.96991C12.0967 5.01934 12.1245 5.08635 12.1246 5.15625V5.15625ZM11.0464 3.34875C11.307 3.67391 11.4673 4.06785 11.5078 4.48254H8.76563C8.806 4.06795 8.9661 3.67406 9.22641 3.34887L9.31043 3.24422H10.9628L11.0464 3.34875ZM12.4508 0.9375H11.3086C11.0678 0.937779 10.837 1.03355 10.6667 1.20381C10.4964 1.37408 10.4007 1.60492 10.4004 1.8457V2.83383H9.87305V1.84594C9.87339 1.46529 10.0247 1.10033 10.2939 0.831147C10.563 0.561966 10.9279 0.41056 11.3086 0.410156H12.4512C12.8318 0.41056 13.1967 0.561934 13.4658 0.831064C13.7349 1.10019 13.8863 1.4651 13.8867 1.8457V6.65039H13.3594V1.8457C13.3591 1.60486 13.2633 1.37396 13.0929 1.20369C12.9226 1.03342 12.6917 0.937686 12.4508 0.9375V0.9375ZM1.59668 6.18176C1.62732 6.18204 1.65789 6.18482 1.68809 6.19008C1.73984 6.19862 1.7929 6.18697 1.83631 6.15753C1.87973 6.12809 1.91019 6.08311 1.92141 6.03188C1.97267 5.79979 2.10199 5.59232 2.28778 5.44408C2.47357 5.29585 2.70458 5.21583 2.94225 5.21738C3.17992 5.21893 3.40987 5.30196 3.59371 5.4526C3.77755 5.60324 3.90415 5.81239 3.95238 6.04512C3.95801 6.07249 3.96917 6.09843 3.98519 6.12133C4.00121 6.14423 4.02174 6.16361 4.04553 6.17829C4.06931 6.19296 4.09584 6.20262 4.1235 6.20666C4.15115 6.2107 4.17934 6.20905 4.20633 6.2018C4.30362 6.17387 4.40678 6.17376 4.50413 6.20147C4.60148 6.22919 4.68912 6.28362 4.75711 6.35859C4.77902 6.38213 4.80616 6.40019 4.83634 6.4113C4.86653 6.4224 4.8989 6.42625 4.93084 6.42253C4.96278 6.41882 4.99341 6.40763 5.02023 6.38989C5.04705 6.37214 5.06932 6.34834 5.08523 6.32039C5.15637 6.19543 5.26686 6.09752 5.39946 6.04192C5.53207 5.98631 5.67935 5.97615 5.81833 6.013C5.95732 6.04986 6.08021 6.13166 6.16785 6.24566C6.25548 6.35966 6.30294 6.49945 6.30281 6.64324V6.65062H1.04695C1.06799 6.51993 1.13485 6.40098 1.23557 6.31508C1.3363 6.22917 1.4643 6.18191 1.59668 6.18176V6.18176ZM3.24316 14.357C3.21396 14.4261 3.16503 14.485 3.10249 14.5264C3.03995 14.5677 2.96659 14.5897 2.8916 14.5896C2.82857 14.5897 2.7665 14.5741 2.71094 14.5443C2.65539 14.5145 2.60809 14.4714 2.57326 14.4189C2.53843 14.3664 2.51717 14.306 2.51137 14.2432C2.50558 14.1805 2.51543 14.1173 2.54004 14.0592L2.75461 13.5527C2.76445 13.5561 2.77465 13.5586 2.78461 13.5619C2.82387 13.5748 2.86359 13.5866 2.90367 13.5979C2.92078 13.6027 2.93777 13.6079 2.95488 13.6125C3.00984 13.6269 3.06527 13.6399 3.12141 13.6512C3.13758 13.6545 3.15387 13.6569 3.17004 13.66C3.21211 13.6677 3.2543 13.6748 3.29695 13.6808C3.3177 13.6837 3.33844 13.6863 3.3593 13.6888C3.40008 13.6937 3.44109 13.6976 3.48234 13.7005C3.49465 13.7016 3.50695 13.7033 3.51926 13.7041L3.24316 14.357ZM12.2452 13.5527L12.4597 14.0592C12.4843 14.1173 12.4942 14.1805 12.4884 14.2432C12.4826 14.306 12.4613 14.3664 12.4265 14.4189C12.3917 14.4714 12.3444 14.5145 12.2888 14.5443C12.2333 14.5741 12.1712 14.5897 12.1082 14.5896C12.0332 14.5897 11.9598 14.5677 11.8973 14.5263C11.8348 14.4849 11.7858 14.426 11.7566 14.357L11.4803 13.7045C11.4926 13.7037 11.5046 13.7019 11.5168 13.701C11.5586 13.6977 11.6 13.6936 11.6413 13.6887C11.6614 13.6862 11.6816 13.6838 11.7018 13.6809C11.7454 13.6748 11.7886 13.6676 11.8315 13.6596C11.847 13.6567 11.8624 13.6545 11.8778 13.6513C11.9339 13.64 11.9895 13.627 12.0445 13.6125C12.0619 13.6079 12.079 13.6027 12.0962 13.5979C12.1361 13.5866 12.1756 13.5746 12.2149 13.5619C12.2251 13.5586 12.2352 13.5561 12.2452 13.5527V13.5527ZM13.8867 10.6934C13.8861 11.2119 13.7311 11.7186 13.4414 12.1487C13.1517 12.5789 12.7406 12.913 12.2603 13.1086C12.19 13.1374 12.1177 13.1636 12.0449 13.1859C12.0368 13.1884 12.0284 13.1905 12.0202 13.193C11.9462 13.2149 11.8716 13.234 11.796 13.2491C11.7889 13.2506 11.7819 13.2516 11.7749 13.253C11.6971 13.268 11.6187 13.2799 11.5395 13.2881C11.5362 13.2881 11.5328 13.2881 11.5295 13.2888C11.4468 13.2967 11.3633 13.3005 11.2793 13.3005H3.7207C3.63797 13.3005 3.55594 13.2962 3.47461 13.2888L3.45949 13.2877C3.38156 13.2799 3.30434 13.2681 3.22781 13.2533C3.21973 13.2518 3.21152 13.2506 3.20344 13.249C3.12855 13.2339 3.05438 13.215 2.98078 13.1932C2.97211 13.1906 2.96344 13.1884 2.95488 13.1858C2.88223 13.1634 2.81062 13.1374 2.73973 13.1086C2.25947 12.913 1.84832 12.5789 1.55866 12.1488C1.269 11.7187 1.11395 11.2121 1.11328 10.6936V8.34984H13.8867V10.6934ZM14.5898 7.67578C14.5898 7.74568 14.5619 7.81269 14.5125 7.86212C14.4631 7.91155 14.3961 7.93936 14.3262 7.93945H0.673828C0.603927 7.93936 0.536915 7.91155 0.487487 7.86212C0.438059 7.81269 0.410249 7.74568 0.410156 7.67578V7.32422C0.410249 7.25432 0.438059 7.18731 0.487487 7.13788C0.536915 7.08845 0.603927 7.06064 0.673828 7.06055H14.3262C14.3961 7.06064 14.4631 7.08845 14.5125 7.13788C14.5619 7.18731 14.5898 7.25432 14.5898 7.32422V7.67578Z" fill="#777777"/>
</g>
<defs>
<clipPath id="clip0">
<rect width="15" height="15" fill="white"/>
</clipPath>
</defs>
</svg>
