<svg width="7" height="10" viewBox="0 0 7 10" fill="none" xmlns="http://www.w3.org/2000/svg">
<path fill-rule="evenodd" clip-rule="evenodd" d="M3.76154 0V3.08971C5.53283 3.24177 6.92308 4.72774 6.92308 6.53843H6.30384V6.53844H6.00384V6.53843H4.95769V6.53844H4.65769V6.53843H3.61154V6.53844H3.31154V6.53843H2.26538V6.53844H1.96538V6.53843H0.919229V6.53844H0.619229V6.53843H0C0 4.72774 1.39025 3.24177 3.16154 3.08971V0H3.76154ZM0.619229 6.99998V7.46152H0.919229V6.99998H0.619229ZM1.96538 6.99998V7.46152H2.26538V6.99998H1.96538ZM3.31154 6.99998V7.46152H3.61154V6.99998H3.31154ZM4.65769 6.99998V7.46152H4.95769V6.99998H4.65769ZM6.00384 6.99998V7.46152H6.30384V6.99998H6.00384ZM0.619229 7.92306V8.3846H0.919229V7.92306H0.619229ZM1.96538 7.92306V8.3846H2.26538V7.92306H1.96538ZM3.31154 7.92306V8.3846H3.61154V7.92306H3.31154ZM4.65769 7.92306V8.3846H4.95769V7.92306H4.65769ZM6.00384 7.92306V8.3846H6.30384V7.92306H6.00384ZM0.619229 8.84614V9.30768H0.919229V8.84614H0.619229ZM1.96538 8.84614V9.30768H2.26538V8.84614H1.96538ZM3.31154 8.84614V9.30768H3.61154V8.84614H3.31154ZM4.65769 8.84614V9.30768H4.95769V8.84614H4.65769ZM6.00384 8.84614V9.30768H6.30384V8.84614H6.00384ZM0.619229 9.76921V9.99998H0.919229V9.76921H0.619229ZM1.96538 9.76921V9.99998H2.26538V9.76921H1.96538ZM3.31154 9.76921V9.99998H3.61154V9.76921H3.31154ZM4.65769 9.76921V9.99998H4.95769V9.76921H4.65769ZM6.00384 9.76921V9.99998H6.30384V9.76921H6.00384Z" fill="#777777"/>
</svg>
