<svg width="252" height="181" viewBox="0 0 252 181" fill="none" xmlns="http://www.w3.org/2000/svg">
<path d="M5.83704 170.03L10.3748 179.757H9.32928L7.81198 176.557H3.59454L2.08428 179.757H1L5.59413 170.03H5.83704V170.03ZM5.71382 172.069L4.04163 175.61H7.38249L5.71382 172.069Z" fill="#FEFEFE"/>
<path d="M26.2519 171.66L25.4985 172.371C24.9528 171.84 24.3579 171.435 23.7101 171.16C23.0624 170.886 22.4287 170.748 21.8126 170.748C21.0487 170.748 20.32 170.935 19.6265 171.308C18.9365 171.685 18.3978 172.192 18.0176 172.836C17.6374 173.477 17.4473 174.153 17.4473 174.871C17.4473 175.603 17.6445 176.297 18.0352 176.958C18.4295 177.617 18.9717 178.134 19.6652 178.511C20.3622 178.888 21.1191 179.078 21.9464 179.078C22.9497 179.078 23.7981 178.796 24.4917 178.233C25.1852 177.673 25.5971 176.941 25.7238 176.043H22.6223V175.096H26.8222C26.8116 176.596 26.3645 177.793 25.4809 178.673C24.5937 179.556 23.4109 180 21.9253 180C20.1228 180 18.6971 179.387 17.6445 178.162C16.8348 177.219 16.4299 176.128 16.4299 174.888C16.4299 173.97 16.6623 173.111 17.127 172.315C17.5917 171.523 18.2289 170.903 19.035 170.456C19.8482 170.009 20.76 169.784 21.7809 169.784C22.6082 169.784 23.3863 169.935 24.115 170.231C24.8472 170.527 25.5583 171.002 26.2519 171.66V171.66Z" fill="#FEFEFE"/>
<path d="M33.6519 170.03H39.2211V170.977H34.627V174.026H39.1789V174.973H34.627V178.807H39.1789V179.757H33.6519V170.03Z" fill="#FEFEFE"/>
<path d="M45.8922 179.757V170.03H46.1034L52.5704 177.469V170.03H53.5456V179.757H53.3238L46.8955 172.382V179.757H45.8922Z" fill="#FEFEFE"/>
<path d="M69.9366 171.826L69.1691 172.414C68.7467 171.861 68.2398 171.445 67.6448 171.16C67.0534 170.875 66.4056 170.734 65.6945 170.734C64.92 170.734 64.2019 170.921 63.54 171.294C62.8782 171.667 62.3677 172.167 62.0051 172.794C61.6425 173.424 61.4595 174.132 61.4595 174.917C61.4595 176.103 61.8643 177.096 62.6775 177.888C63.4907 178.68 64.5152 179.078 65.7544 179.078C67.1167 179.078 68.2538 178.546 69.1691 177.479L69.9366 178.064C69.4543 178.68 68.8488 179.159 68.1236 179.493C67.3984 179.831 66.5887 180 65.6945 180C63.9906 180 62.6494 179.433 61.6672 178.3C60.8399 177.346 60.428 176.187 60.428 174.836C60.428 173.413 60.9279 172.216 61.9242 171.245C62.9239 170.27 64.1772 169.784 65.6804 169.784C66.5887 169.784 67.4054 169.963 68.1377 170.319C68.8699 170.678 69.4719 171.181 69.9366 171.826V171.826Z" fill="#FEFEFE"/>
<path d="M76.731 170.03H77.7061V179.757H76.731V170.03Z" fill="#FEFEFE"/>
<path d="M88.8834 170.03L93.4248 179.757H92.3792L90.8584 176.557H86.6445L85.1342 179.757H84.0499L88.6405 170.03H88.8834V170.03ZM88.7637 172.069L87.0916 175.61H90.4289L88.7637 172.069Z" fill="#FEFEFE"/>
<path d="M108.351 170.03H109.326V179.757H108.351V170.03Z" fill="#FEFEFE"/>
<path d="M116.536 179.757V170.03H116.747L123.218 177.469V170.03H124.193V179.757H123.971L117.539 172.382V179.757H116.536Z" fill="#FEFEFE"/>
<path d="M131.1 179.757L132.448 170.03H132.649L136.606 178.007L140.542 170.03H140.686L142.087 179.757H141.144L140.169 172.794L136.726 179.757H136.469L132.991 172.737L132.058 179.757H131.1Z" fill="#FEFEFE"/>
<path d="M153.585 169.784C155.056 169.784 156.289 170.277 157.281 171.259C158.271 172.241 158.767 173.452 158.767 174.888C158.767 176.314 158.274 177.522 157.285 178.511C156.292 179.504 155.088 180 153.662 180C152.223 180 151.004 179.504 150.015 178.518C149.023 177.532 148.526 176.339 148.526 174.934C148.526 174.001 148.751 173.135 149.202 172.336C149.656 171.54 150.272 170.914 151.054 170.463C151.832 170.013 152.677 169.784 153.585 169.784V169.784ZM153.627 170.734C152.909 170.734 152.226 170.921 151.582 171.298C150.938 171.671 150.434 172.174 150.072 172.808C149.709 173.445 149.529 174.153 149.529 174.934C149.529 176.085 149.927 177.064 150.73 177.856C151.533 178.655 152.497 179.053 153.627 179.053C154.384 179.053 155.081 178.87 155.722 178.504C156.366 178.138 156.866 177.634 157.225 177.001C157.584 176.367 157.764 175.663 157.764 174.885C157.764 174.114 157.584 173.417 157.225 172.794C156.866 172.171 156.359 171.671 155.704 171.298C155.053 170.921 154.359 170.734 153.627 170.734V170.734Z" fill="#FEFEFE"/>
<path d="M165.723 170.03H167.642C168.413 170.03 169.008 170.118 169.42 170.301C169.835 170.484 170.162 170.766 170.402 171.146C170.645 171.523 170.764 171.945 170.764 172.406C170.764 172.839 170.655 173.234 170.448 173.586C170.236 173.941 169.927 174.23 169.522 174.448C170.025 174.621 170.416 174.821 170.687 175.054C170.958 175.286 171.169 175.564 171.321 175.895C171.472 176.223 171.55 176.578 171.55 176.962C171.55 177.743 171.264 178.405 170.694 178.944C170.12 179.486 169.356 179.757 168.395 179.757H165.723V170.03V170.03ZM166.67 170.977V174.093H167.23C167.906 174.093 168.406 174.029 168.723 173.906C169.043 173.779 169.296 173.582 169.48 173.311C169.67 173.04 169.761 172.737 169.761 172.406C169.761 171.963 169.606 171.611 169.293 171.357C168.98 171.104 168.483 170.977 167.8 170.977H166.67V170.977ZM166.67 175.068V178.807H167.881C168.592 178.807 169.113 178.736 169.444 178.599C169.775 178.462 170.043 178.24 170.243 177.944C170.444 177.648 170.546 177.328 170.546 176.987C170.546 176.554 170.405 176.173 170.12 175.849C169.839 175.529 169.451 175.307 168.955 175.188C168.624 175.11 168.047 175.068 167.223 175.068H166.67Z" fill="#FEFEFE"/>
<path d="M178.316 170.03H179.291V179.757H178.316V170.03Z" fill="#FEFEFE"/>
<path d="M186.487 170.03H187.462V178.807H191.215V179.757H186.487V170.03Z" fill="#FEFEFE"/>
<path d="M197.586 170.03H198.562V179.757H197.586V170.03Z" fill="#FEFEFE"/>
<path d="M209.742 170.03L214.28 179.757H213.235L211.714 176.557H207.5L205.99 179.757H204.905L209.496 170.03H209.742V170.03ZM209.619 172.069L207.947 175.61H211.284L209.619 172.069Z" fill="#FEFEFE"/>
<path d="M220.807 170.03H222.75C223.831 170.03 224.567 170.076 224.951 170.164C225.532 170.294 226 170.576 226.362 171.012C226.725 171.445 226.904 171.981 226.904 172.614C226.904 173.142 226.781 173.607 226.531 174.008C226.281 174.41 225.926 174.712 225.461 174.917C224.996 175.124 224.356 175.226 223.539 175.23L227.042 179.757H225.845L222.346 175.23H221.786V179.757H220.807V170.03ZM221.786 170.977V174.283L223.465 174.297C224.116 174.297 224.599 174.237 224.908 174.11C225.222 173.987 225.465 173.79 225.641 173.519C225.813 173.248 225.901 172.945 225.901 172.611C225.901 172.283 225.813 171.988 225.637 171.72C225.461 171.452 225.229 171.266 224.94 171.15C224.651 171.034 224.173 170.977 223.504 170.977H221.786V170.977Z" fill="#FEFEFE"/>
<path d="M233.818 170.03H234.794V179.757H233.818V170.03Z" fill="#FEFEFE"/>
<path d="M245.975 170.03L250.512 179.757H249.467L247.946 176.557H243.732L242.222 179.757H241.137L245.732 170.03H245.975V170.03ZM245.851 172.069L244.179 175.61H247.52L245.851 172.069Z" fill="#FEFEFE"/>
<path d="M5.83704 170.03L10.3748 179.757H9.32928L7.81198 176.557H3.59454L2.08428 179.757H1L5.59413 170.03H5.83704V170.03ZM5.71382 172.069L4.04163 175.61H7.38249L5.71382 172.069Z" stroke="#E6E7E8" stroke-width="0.901732" stroke-miterlimit="22.9256"/>
<path d="M26.2519 171.66L25.4985 172.371C24.9528 171.84 24.3579 171.435 23.7101 171.16C23.0624 170.886 22.4287 170.748 21.8126 170.748C21.0487 170.748 20.32 170.935 19.6265 171.308C18.9365 171.685 18.3978 172.192 18.0176 172.836C17.6374 173.477 17.4473 174.153 17.4473 174.871C17.4473 175.603 17.6445 176.297 18.0352 176.958C18.4295 177.617 18.9717 178.134 19.6652 178.511C20.3622 178.888 21.1191 179.078 21.9464 179.078C22.9497 179.078 23.7981 178.796 24.4917 178.233C25.1852 177.673 25.5971 176.941 25.7238 176.043H22.6223V175.096H26.8222C26.8116 176.596 26.3645 177.793 25.4809 178.673C24.5937 179.556 23.4109 180 21.9253 180C20.1228 180 18.6971 179.387 17.6445 178.162C16.8348 177.219 16.4299 176.128 16.4299 174.888C16.4299 173.97 16.6623 173.111 17.127 172.315C17.5917 171.523 18.2289 170.903 19.035 170.456C19.8482 170.009 20.76 169.784 21.7809 169.784C22.6082 169.784 23.3863 169.935 24.115 170.231C24.8472 170.527 25.5583 171.002 26.2519 171.66V171.66Z" stroke="#E6E7E8" stroke-width="0.901732" stroke-miterlimit="22.9256"/>
<path d="M33.6519 170.03H39.2211V170.977H34.627V174.026H39.1789V174.973H34.627V178.807H39.1789V179.757H33.6519V170.03Z" stroke="#E6E7E8" stroke-width="0.901732" stroke-miterlimit="22.9256"/>
<path d="M45.8922 179.757V170.03H46.1034L52.5704 177.469V170.03H53.5456V179.757H53.3238L46.8955 172.382V179.757H45.8922Z" stroke="#E6E7E8" stroke-width="0.901732" stroke-miterlimit="22.9256"/>
<path d="M69.9366 171.826L69.1691 172.414C68.7467 171.861 68.2398 171.445 67.6448 171.16C67.0534 170.875 66.4056 170.734 65.6945 170.734C64.92 170.734 64.2019 170.921 63.54 171.294C62.8782 171.667 62.3677 172.167 62.0051 172.794C61.6425 173.424 61.4595 174.132 61.4595 174.917C61.4595 176.103 61.8643 177.096 62.6775 177.888C63.4907 178.68 64.5152 179.078 65.7544 179.078C67.1167 179.078 68.2538 178.546 69.1691 177.479L69.9366 178.064C69.4543 178.68 68.8488 179.159 68.1236 179.493C67.3984 179.831 66.5887 180 65.6945 180C63.9906 180 62.6494 179.433 61.6672 178.3C60.8399 177.346 60.428 176.187 60.428 174.836C60.428 173.413 60.9279 172.216 61.9242 171.245C62.9239 170.27 64.1772 169.784 65.6804 169.784C66.5887 169.784 67.4054 169.963 68.1377 170.319C68.8699 170.678 69.4719 171.181 69.9366 171.826V171.826Z" stroke="#E6E7E8" stroke-width="0.901732" stroke-miterlimit="22.9256"/>
<path d="M76.731 170.03H77.7061V179.757H76.731V170.03Z" stroke="#E6E7E8" stroke-width="0.901732" stroke-miterlimit="22.9256"/>
<path d="M88.8834 170.03L93.4248 179.757H92.3792L90.8584 176.557H86.6445L85.1342 179.757H84.0499L88.6405 170.03H88.8834V170.03ZM88.7637 172.069L87.0916 175.61H90.4289L88.7637 172.069Z" stroke="#E6E7E8" stroke-width="0.901732" stroke-miterlimit="22.9256"/>
<path d="M108.351 170.03H109.326V179.757H108.351V170.03Z" stroke="#E6E7E8" stroke-width="0.901732" stroke-miterlimit="22.9256"/>
<path d="M116.536 179.757V170.03H116.747L123.218 177.469V170.03H124.193V179.757H123.971L117.539 172.382V179.757H116.536Z" stroke="#E6E7E8" stroke-width="0.901732" stroke-miterlimit="22.9256"/>
<path d="M131.1 179.757L132.448 170.03H132.649L136.606 178.007L140.542 170.03H140.686L142.087 179.757H141.144L140.169 172.794L136.726 179.757H136.469L132.991 172.737L132.058 179.757H131.1Z" stroke="#E6E7E8" stroke-width="0.901732" stroke-miterlimit="22.9256"/>
<path d="M153.585 169.784C155.056 169.784 156.289 170.277 157.281 171.259C158.271 172.241 158.767 173.452 158.767 174.888C158.767 176.314 158.274 177.522 157.285 178.511C156.292 179.504 155.088 180 153.662 180C152.223 180 151.004 179.504 150.015 178.518C149.023 177.532 148.526 176.339 148.526 174.934C148.526 174.001 148.751 173.135 149.202 172.336C149.656 171.54 150.272 170.914 151.054 170.463C151.832 170.013 152.677 169.784 153.585 169.784V169.784ZM153.627 170.734C152.909 170.734 152.226 170.921 151.582 171.298C150.938 171.671 150.434 172.174 150.072 172.808C149.709 173.445 149.529 174.153 149.529 174.934C149.529 176.085 149.927 177.064 150.73 177.856C151.533 178.655 152.497 179.053 153.627 179.053C154.384 179.053 155.081 178.87 155.722 178.504C156.366 178.138 156.866 177.634 157.225 177.001C157.584 176.367 157.764 175.663 157.764 174.885C157.764 174.114 157.584 173.417 157.225 172.794C156.866 172.171 156.359 171.671 155.704 171.298C155.053 170.921 154.359 170.734 153.627 170.734V170.734Z" stroke="#E6E7E8" stroke-width="0.901732" stroke-miterlimit="22.9256"/>
<path d="M165.723 170.03H167.642C168.413 170.03 169.008 170.118 169.42 170.301C169.835 170.484 170.162 170.766 170.402 171.146C170.645 171.523 170.764 171.945 170.764 172.406C170.764 172.839 170.655 173.234 170.448 173.586C170.236 173.941 169.927 174.23 169.522 174.448C170.025 174.621 170.416 174.821 170.687 175.054C170.958 175.286 171.169 175.564 171.321 175.895C171.472 176.223 171.55 176.578 171.55 176.962C171.55 177.743 171.264 178.405 170.694 178.944C170.12 179.486 169.356 179.757 168.395 179.757H165.723V170.03V170.03ZM166.67 170.977V174.093H167.23C167.906 174.093 168.406 174.029 168.723 173.906C169.043 173.779 169.296 173.582 169.48 173.311C169.67 173.04 169.761 172.737 169.761 172.406C169.761 171.963 169.606 171.611 169.293 171.357C168.98 171.104 168.483 170.977 167.8 170.977H166.67V170.977ZM166.67 175.068V178.807H167.881C168.592 178.807 169.113 178.736 169.444 178.599C169.775 178.462 170.043 178.24 170.243 177.944C170.444 177.648 170.546 177.328 170.546 176.987C170.546 176.554 170.405 176.173 170.12 175.849C169.839 175.529 169.451 175.307 168.955 175.188C168.624 175.11 168.047 175.068 167.223 175.068H166.67Z" stroke="#E6E7E8" stroke-width="0.901732" stroke-miterlimit="22.9256"/>
<path d="M178.316 170.03H179.291V179.757H178.316V170.03Z" stroke="#E6E7E8" stroke-width="0.901732" stroke-miterlimit="22.9256"/>
<path d="M186.487 170.03H187.462V178.807H191.215V179.757H186.487V170.03Z" stroke="#E6E7E8" stroke-width="0.901732" stroke-miterlimit="22.9256"/>
<path d="M197.586 170.03H198.562V179.757H197.586V170.03Z" stroke="#E6E7E8" stroke-width="0.901732" stroke-miterlimit="22.9256"/>
<path d="M209.742 170.03L214.28 179.757H213.235L211.714 176.557H207.5L205.99 179.757H204.905L209.496 170.03H209.742V170.03ZM209.619 172.069L207.947 175.61H211.284L209.619 172.069Z" stroke="#E6E7E8" stroke-width="0.901732" stroke-miterlimit="22.9256"/>
<path d="M220.807 170.03H222.75C223.831 170.03 224.567 170.076 224.951 170.164C225.532 170.294 226 170.576 226.362 171.012C226.725 171.445 226.904 171.981 226.904 172.614C226.904 173.142 226.781 173.607 226.531 174.008C226.281 174.41 225.926 174.712 225.461 174.917C224.996 175.124 224.356 175.226 223.539 175.23L227.042 179.757H225.845L222.346 175.23H221.786V179.757H220.807V170.03ZM221.786 170.977V174.283L223.465 174.297C224.116 174.297 224.599 174.237 224.908 174.11C225.222 173.987 225.465 173.79 225.641 173.519C225.813 173.248 225.901 172.945 225.901 172.611C225.901 172.283 225.813 171.988 225.637 171.72C225.461 171.452 225.229 171.266 224.94 171.15C224.651 171.034 224.173 170.977 223.504 170.977H221.786V170.977Z" stroke="#E6E7E8" stroke-width="0.901732" stroke-miterlimit="22.9256"/>
<path d="M233.818 170.03H234.794V179.757H233.818V170.03Z" stroke="#E6E7E8" stroke-width="0.901732" stroke-miterlimit="22.9256"/>
<path d="M245.975 170.03L250.512 179.757H249.467L247.946 176.557H243.732L242.222 179.757H241.137L245.732 170.03H245.975V170.03ZM245.851 172.069L244.179 175.61H247.52L245.851 172.069Z" stroke="#E6E7E8" stroke-width="0.901732" stroke-miterlimit="22.9256"/>
<path fill-rule="evenodd" clip-rule="evenodd" d="M108.2 84.1288C110.985 85.9876 125.309 90.4831 129.333 91.2189L129.988 91.1872C130.023 91.1098 130.062 90.9373 130.076 90.976C130.28 91.5146 130.22 90.6592 130.248 90.5923C130.273 90.5289 130.452 90.0536 130.452 90.0501C130.681 89.3777 130.628 89.3707 130.769 88.6138L135.948 64.4849C137.983 56.5288 139.486 45.8655 141.549 37.487L146.541 13.0729C146.868 10.9396 148.097 6.62708 148.202 4.92321C147.435 4.47612 121.504 -0.100409 120.944 0.00168242C119.553 0.24459 120.423 0.941631 119.979 3.19821C119.807 4.06775 119.419 5.47239 119.3 6.38066C118.43 12.9603 117.599 21.6874 116.441 27.9467C116.022 30.2103 115.864 32.8224 115.501 35.0086L108.2 84.1288V84.1288Z" fill="#FEC800"/>
<path fill-rule="evenodd" clip-rule="evenodd" d="M127.122 90.8457C128.055 91.6871 128.062 91.1274 129.442 91.4794C130.319 91.7012 129.22 91.6061 130.576 91.8209C130.977 91.8843 131.649 91.8878 132.079 91.9089C135.736 92.0884 142.992 94.2183 148.917 93.6409L155.401 78.2603C156.803 74.8842 173.391 33.5441 173.887 31.4319L148.882 22.4654C148.315 23.0603 138.926 53.2725 137.937 56.5992L127.787 90.0642C127.326 91.1872 127.9 90.5676 127.122 90.8457V90.8457Z" fill="#DC291A"/>
<path fill-rule="evenodd" clip-rule="evenodd" d="M90.8303 82.1644C91.8265 82.3792 91.4815 82.4003 92.2877 82.1609C92.9847 81.9532 91.8864 81.8722 93.6607 81.8089C94.4492 81.7807 96.1707 81.7349 96.9029 81.83C97.519 81.9074 98.6772 82.3827 99.3532 82.608L102.638 84.0584C102.69 84.0866 102.75 84.1218 102.807 84.1464C104.19 84.7097 103.124 83.6676 105.373 85.1075L108.622 86.6036C110.383 87.3711 110.066 87.5647 111.58 87.5929C111.879 81.1998 113.4 23.7961 112.734 22.1309C111.196 21.4233 90.8795 22.2295 87.3521 22.2401C87.2711 25.1937 88.6863 47.7595 88.9926 52.2973C89.327 57.2822 89.6016 62.2882 89.8375 67.2062L90.8303 82.1644V82.1644Z" fill="#00A859"/>
<path fill-rule="evenodd" clip-rule="evenodd" d="M79.5016 51.6002C62.1601 55.7754 47.7229 60.2041 71.5138 72.7614C95.9172 85.6426 115.36 88.0716 142.006 92.268C148.414 92.877 193.608 95.9679 185.663 78.6933L183.663 75.0461C186.863 77.7146 190.331 80.4746 188.933 85.3961C183.934 102.977 134.747 97.8267 120.94 95.9468C104.352 93.6937 62.6388 81.2561 55.8198 64.8194C50.3315 51.5932 73.457 51.5334 79.5016 51.6002V51.6002Z" fill="#00AFEF"/>
<path fill-rule="evenodd" clip-rule="evenodd" d="M83.4268 72.86C105.179 82.1961 158.408 101.241 181.481 87.8006C190.567 82.5059 183.262 75.9474 178.112 70.7618C185.878 75.8312 193.056 83.217 182.818 89.9656C159.151 105.561 104.13 87.5401 80.9977 78.2638C79.5051 77.5914 78.8397 75.8382 79.5121 74.3456C80.181 72.8565 81.9341 72.1911 83.4268 72.86V72.86Z" fill="#3E4095"/>
<path d="M6.37219 123.367H26.6779V126.824H9.93132V137.942H26.53V141.399H9.93132V155.382H26.53V158.842H6.37219V123.367Z" fill="#FEFEFE"/>
<path d="M33.1835 123.367H36.7391V155.382H50.4264V158.842H33.1835V123.367Z" fill="#FEFEFE"/>
<path d="M69.9084 123.367H76.9809C81.0329 123.367 83.7753 123.54 85.1905 123.895C87.2183 124.395 88.8729 125.416 90.1578 126.972C91.4498 128.521 92.0905 130.475 92.0905 132.82C92.0905 135.182 91.4674 137.125 90.2071 138.667C88.9538 140.198 87.2253 141.226 85.0251 141.761C83.4127 142.149 80.4063 142.339 76.0023 142.339H73.4641V158.842H69.9084V123.367V123.367ZM73.4641 126.824V138.882L79.4769 138.956C81.906 138.956 83.6838 138.734 84.8138 138.287C85.9404 137.843 86.831 137.136 87.4717 136.146C88.116 135.157 88.4363 134.048 88.4363 132.827C88.4363 131.644 88.116 130.549 87.4717 129.56C86.831 128.57 85.9721 127.87 84.9195 127.451C83.8669 127.032 82.1454 126.824 79.7409 126.824H73.4641V126.824Z" fill="#FEFEFE"/>
<path d="M116.431 122.477C121.799 122.477 126.295 124.272 129.91 127.856C133.526 131.436 135.335 135.851 135.335 141.089C135.335 146.282 133.533 150.689 129.924 154.305C126.312 157.92 121.915 159.729 116.719 159.729C111.463 159.729 107.024 157.927 103.412 154.329C99.7967 150.731 97.9836 146.373 97.9836 141.261C97.9836 137.85 98.8074 134.696 100.455 131.781C102.103 128.877 104.349 126.595 107.2 124.948C110.041 123.3 113.118 122.477 116.431 122.477V122.477ZM116.585 125.937C113.966 125.937 111.481 126.62 109.126 127.986C106.778 129.352 104.943 131.19 103.616 133.502C102.3 135.826 101.641 138.403 101.641 141.251C101.641 145.461 103.099 149.017 106.021 151.914C108.946 154.822 112.47 156.272 116.585 156.272C119.345 156.272 121.891 155.604 124.228 154.269C126.573 152.935 128.403 151.108 129.713 148.795C131.023 146.482 131.681 143.912 131.681 141.078C131.681 138.262 131.023 135.72 129.713 133.446C128.403 131.172 126.548 129.352 124.168 127.986C121.789 126.62 119.261 125.937 116.585 125.937V125.937Z" fill="#FEFEFE"/>
<path d="M143.024 123.367H150.107C154.05 123.367 156.725 123.533 158.126 123.853C160.242 124.332 161.956 125.36 163.273 126.947C164.597 128.532 165.259 130.482 165.259 132.795C165.259 134.721 164.804 136.417 163.889 137.875C162.984 139.343 161.682 140.445 159.989 141.195C158.299 141.944 155.961 142.321 152.979 142.339L165.751 158.842H161.393L148.625 142.339H146.583V158.842H143.024V123.367V123.367ZM146.583 126.824V138.882L152.708 138.931C155.088 138.931 156.841 138.709 157.978 138.255C159.115 137.801 160.003 137.086 160.647 136.097C161.281 135.108 161.601 134.006 161.601 132.777C161.601 131.594 161.281 130.507 160.629 129.535C159.989 128.563 159.14 127.87 158.084 127.451C157.038 127.032 155.292 126.824 152.856 126.824H146.583V126.824Z" fill="#FEFEFE"/>
<path d="M169.677 126.824V123.367H189.092V126.824H181.188V158.842H177.58V126.824H169.677Z" fill="#FEFEFE"/>
<path d="M209.116 123.367L225.669 158.842H221.856L216.311 147.179H200.938L195.432 158.842H191.479L208.229 123.367H209.116ZM208.672 130.809L202.571 143.722H214.748L208.672 130.809Z" fill="#FEFEFE"/>
<path d="M231.502 123.367H235.061V155.382H248.745V158.842H231.502V123.367Z" fill="#FEFEFE"/>
<path d="M6.37219 123.367H26.6779V126.824H9.93132V137.942H26.53V141.399H9.93132V155.382H26.53V158.842H6.37219V123.367Z" stroke="#E6E7E8" stroke-width="0.901732" stroke-miterlimit="22.9256"/>
<path d="M33.1835 123.367H36.7391V155.382H50.4264V158.842H33.1835V123.367Z" stroke="#E6E7E8" stroke-width="0.901732" stroke-miterlimit="22.9256"/>
<path d="M69.9084 123.367H76.9809C81.0329 123.367 83.7753 123.54 85.1905 123.895C87.2183 124.395 88.8729 125.416 90.1578 126.972C91.4498 128.521 92.0905 130.475 92.0905 132.82C92.0905 135.182 91.4674 137.125 90.2071 138.667C88.9538 140.198 87.2253 141.226 85.0251 141.761C83.4127 142.149 80.4063 142.339 76.0023 142.339H73.4641V158.842H69.9084V123.367V123.367ZM73.4641 126.824V138.882L79.4769 138.956C81.906 138.956 83.6838 138.734 84.8138 138.287C85.9404 137.843 86.831 137.136 87.4717 136.146C88.116 135.157 88.4363 134.048 88.4363 132.827C88.4363 131.644 88.116 130.549 87.4717 129.56C86.831 128.57 85.9721 127.87 84.9195 127.451C83.8669 127.032 82.1454 126.824 79.7409 126.824H73.4641V126.824Z" stroke="#E6E7E8" stroke-width="0.901732" stroke-miterlimit="22.9256"/>
<path d="M116.431 122.477C121.799 122.477 126.295 124.272 129.91 127.856C133.526 131.436 135.335 135.851 135.335 141.089C135.335 146.282 133.533 150.689 129.924 154.305C126.312 157.92 121.915 159.729 116.719 159.729C111.463 159.729 107.024 157.927 103.412 154.329C99.7967 150.731 97.9836 146.373 97.9836 141.261C97.9836 137.85 98.8074 134.696 100.455 131.781C102.103 128.877 104.349 126.595 107.2 124.948C110.041 123.3 113.118 122.477 116.431 122.477V122.477ZM116.585 125.937C113.966 125.937 111.481 126.62 109.126 127.986C106.778 129.352 104.943 131.19 103.616 133.502C102.3 135.826 101.641 138.403 101.641 141.251C101.641 145.461 103.099 149.017 106.021 151.914C108.946 154.822 112.47 156.272 116.585 156.272C119.345 156.272 121.891 155.604 124.228 154.269C126.573 152.935 128.403 151.108 129.713 148.795C131.023 146.482 131.681 143.912 131.681 141.078C131.681 138.262 131.023 135.72 129.713 133.446C128.403 131.172 126.548 129.352 124.168 127.986C121.789 126.62 119.261 125.937 116.585 125.937V125.937Z" stroke="#E6E7E8" stroke-width="0.901732" stroke-miterlimit="22.9256"/>
<path d="M143.024 123.367H150.107C154.05 123.367 156.725 123.533 158.126 123.853C160.242 124.332 161.956 125.36 163.273 126.947C164.597 128.532 165.259 130.482 165.259 132.795C165.259 134.721 164.804 136.417 163.889 137.875C162.984 139.343 161.682 140.445 159.989 141.195C158.299 141.944 155.961 142.321 152.979 142.339L165.751 158.842H161.393L148.625 142.339H146.583V158.842H143.024V123.367V123.367ZM146.583 126.824V138.882L152.708 138.931C155.088 138.931 156.841 138.709 157.978 138.255C159.115 137.801 160.003 137.086 160.647 136.097C161.281 135.108 161.601 134.006 161.601 132.777C161.601 131.594 161.281 130.507 160.629 129.535C159.989 128.563 159.14 127.87 158.084 127.451C157.038 127.032 155.292 126.824 152.856 126.824H146.583V126.824Z" stroke="#E6E7E8" stroke-width="0.901732" stroke-miterlimit="22.9256"/>
<path d="M169.677 126.824V123.367H189.092V126.824H181.188V158.842H177.58V126.824H169.677Z" stroke="#E6E7E8" stroke-width="0.901732" stroke-miterlimit="22.9256"/>
<path d="M209.116 123.367L225.669 158.842H221.856L216.311 147.179H200.938L195.432 158.842H191.479L208.229 123.367H209.116ZM208.672 130.809L202.571 143.722H214.748L208.672 130.809Z" stroke="#E6E7E8" stroke-width="0.901732" stroke-miterlimit="22.9256"/>
<path d="M231.502 123.367H235.061V155.382H248.745V158.842H231.502V123.367Z" stroke="#E6E7E8" stroke-width="0.901732" stroke-miterlimit="22.9256"/>
</svg>
