<svg width="14" height="14" viewBox="0 0 14 14" fill="none" xmlns="http://www.w3.org/2000/svg">
<path d="M9.28024 7.07179L14 10.0555V3.96204L9.28024 7.07179Z" fill="white"/>
<path d="M0 3.96204V10.0555L4.71975 7.07179L0 3.96204Z" fill="white"/>
<path d="M13.125 2.1875H0.874996C0.43837 2.1875 0.0918702 2.513 0.0262451 2.93213L7 7.52675L13.9738 2.93213C13.9081 2.513 13.5616 2.1875 13.125 2.1875Z" fill="white"/>
<path d="M8.47876 7.60024L7.24063 8.41574C7.16713 8.46387 7.08401 8.48749 7.00001 8.48749C6.91601 8.48749 6.83288 8.46387 6.75938 8.41574L5.52125 7.59937L0.0279999 11.074C0.0953749 11.4896 0.440125 11.8125 0.875001 11.8125H13.125C13.5599 11.8125 13.9046 11.4896 13.972 11.074L8.47876 7.60024Z" fill="white"/>
</svg>
