<svg width="30" height="30" viewBox="0 0 30 30" fill="none" xmlns="http://www.w3.org/2000/svg">
<g clip-path="url(#clip0)">
<path d="M28.3497 1.65024C27.2499 0.550148 25.9248 0 24.3754 0H5.62531C4.07598 0 2.75089 0.550148 1.65059 1.65024C0.550499 2.75054 0.000350952 4.07556 0.000350952 5.62496V24.3749C0.000350952 25.9241 0.550499 27.2493 1.65059 28.3496C2.75089 29.4499 4.07598 30 5.62531 30H24.3752C25.9246 30 27.2497 29.4499 28.3495 28.3496C29.4498 27.2493 29.9999 25.9242 29.9999 24.3749V5.62496C29.9999 4.07556 29.4497 2.75033 28.3497 1.65024ZM25.5275 15.4296H22.1095V27.8317H16.9924V15.4296H14.4338V11.1521H16.9924V8.59345C16.9924 6.75748 17.4222 5.37089 18.2815 4.43327C19.1406 3.49565 20.5598 3.02712 22.5394 3.02712H25.9573V7.30448H23.8092C23.0798 7.30448 22.6143 7.43124 22.4125 7.68538C22.2108 7.93925 22.1096 8.38521 22.1096 9.02333V11.1522H25.977L25.5275 15.4296Z" fill="white"/>
</g>
<defs>
<clipPath id="clip0">
<rect width="30" height="30" fill="white"/>
</clipPath>
</defs>
</svg>
