<svg width="15" height="15" viewBox="0 0 15 15" fill="none" xmlns="http://www.w3.org/2000/svg">
<path d="M14.5312 10.0781H14.2969V8.20312C14.2965 7.95458 14.1977 7.71632 14.0219 7.54057C13.8462 7.36483 13.6079 7.26595 13.3594 7.26562V3.28125C13.359 3.03271 13.2602 2.79444 13.0844 2.6187C12.9087 2.44295 12.6704 2.34408 12.4219 2.34375H2.57812C2.32958 2.34408 2.09132 2.44295 1.91557 2.6187C1.73983 2.79444 1.64095 3.03271 1.64062 3.28125V7.26562C1.39208 7.26595 1.15382 7.36483 0.978072 7.54057C0.802327 7.71632 0.703451 7.95458 0.703125 8.20312V10.0781H0.46875C0.40659 10.0781 0.346976 10.1028 0.303022 10.1468C0.259068 10.1907 0.234375 10.2503 0.234375 10.3125V11.25C0.234375 11.3122 0.259068 11.3718 0.303022 11.4157C0.346976 11.4597 0.40659 11.4844 0.46875 11.4844H0.703125V12.4219C0.703125 12.484 0.727818 12.5436 0.771772 12.5876C0.815726 12.6316 0.87534 12.6562 0.9375 12.6562H1.64062C1.69479 12.6563 1.74729 12.6375 1.78918 12.6032C1.83106 12.5688 1.85974 12.521 1.87031 12.4679L2.06719 11.4844H12.9328L13.1297 12.4679C13.1403 12.521 13.1689 12.5688 13.2108 12.6032C13.2527 12.6375 13.3052 12.6563 13.3594 12.6562H14.0625C14.1247 12.6562 14.1843 12.6316 14.2282 12.5876C14.2722 12.5436 14.2969 12.484 14.2969 12.4219V11.4844H14.5312C14.5934 11.4844 14.653 11.4597 14.697 11.4157C14.7409 11.3718 14.7656 11.3122 14.7656 11.25V10.3125C14.7656 10.2503 14.7409 10.1907 14.697 10.1468C14.653 10.1028 14.5934 10.0781 14.5312 10.0781ZM2.10938 3.28125C2.10954 3.15698 2.15898 3.03785 2.24685 2.94997C2.33472 2.8621 2.45385 2.81266 2.57812 2.8125H12.4219C12.5461 2.81266 12.6653 2.8621 12.7532 2.94997C12.841 3.03785 12.8905 3.15698 12.8906 3.28125V7.26562H12.4219V6.32812C12.4215 6.07958 12.3227 5.84132 12.1469 5.66557C11.9712 5.48983 11.7329 5.39095 11.4844 5.39062H8.67188C8.42333 5.39095 8.18507 5.48983 8.00932 5.66557C7.83358 5.84132 7.7347 6.07958 7.73438 6.32812V7.26562H7.26562V6.32812C7.2653 6.07958 7.16642 5.84132 6.99068 5.66557C6.81493 5.48983 6.57667 5.39095 6.32812 5.39062H3.51562C3.26708 5.39095 3.02882 5.48983 2.85307 5.66557C2.67733 5.84132 2.57845 6.07958 2.57812 6.32812V7.26562H2.10938V3.28125ZM11.9531 6.32812V7.26562H8.20312V6.32812C8.20329 6.20385 8.25273 6.08472 8.3406 5.99685C8.42847 5.90898 8.5476 5.85954 8.67188 5.85938H11.4844C11.6086 5.85954 11.7278 5.90898 11.8157 5.99685C11.9035 6.08472 11.953 6.20385 11.9531 6.32812ZM6.79688 6.32812V7.26562H3.04688V6.32812C3.04704 6.20385 3.09648 6.08472 3.18435 5.99685C3.27222 5.90898 3.39135 5.85954 3.51562 5.85938H6.32812C6.4524 5.85954 6.57153 5.90898 6.6594 5.99685C6.74727 6.08472 6.79671 6.20385 6.79688 6.32812ZM1.17188 8.20312C1.17204 8.07885 1.22148 7.95972 1.30935 7.87185C1.39722 7.78398 1.51635 7.73454 1.64062 7.73438H13.3594C13.4836 7.73454 13.6028 7.78398 13.6907 7.87185C13.7785 7.95972 13.828 8.07885 13.8281 8.20312V10.0781H1.17188V8.20312ZM1.44844 12.1875H1.17188V11.4844H1.58906L1.44844 12.1875ZM13.8281 12.1875H13.5516L13.4109 11.4844H13.8281V12.1875ZM14.2969 11.0156H0.703125V10.5469H14.2969V11.0156Z" fill="#777777"/>
</svg>
