<?xml version="1.0" encoding="UTF-8"?>
<!DOCTYPE svg PUBLIC "-//W3C//DTD SVG 1.1//EN" "http://www.w3.org/Graphics/SVG/1.1/DTD/svg11.dtd">
<!-- Creator: CorelDRAW 2018 -->
<svg xmlns="http://www.w3.org/2000/svg" xml:space="preserve" width="2207px" height="513px" version="1.1" style="shape-rendering:geometricPrecision; text-rendering:geometricPrecision; image-rendering:optimizeQuality; fill-rule:evenodd; clip-rule:evenodd"
viewBox="0 0 629.48 146.34"
 xmlns:xlink="http://www.w3.org/1999/xlink">
 <defs>
  <style type="text/css">
   <![CDATA[
    .fil5 {fill:none}
    .fil4 {fill:#00AFEF}
    .fil3 {fill:#00A859}
    .fil6 {fill:#3E4095}
    .fil2 {fill:#DC291A}
    .fil1 {fill:#FEC800}
    .fil0 {fill:#282829;fill-rule:nonzero}
   ]]>
  </style>
 </defs>
 <g id="Layer_x0020_1">
  <metadata id="CorelCorpID_0Corel-Layer"/>
  <path class="fil0" d="M219.73 108.84l6.77 14.5 -1.56 0 -2.27 -4.77 -6.28 0 -2.26 4.77 -1.61 0 6.85 -14.5 0.36 0zm-0.18 3.04l-2.5 5.28 4.98 0 -2.48 -5.28z"/>
  <path id="1" class="fil0" d="M250.18 111.27l-1.13 1.06c-0.81,-0.79 -1.7,-1.4 -2.66,-1.81 -0.97,-0.41 -1.91,-0.61 -2.83,-0.61 -1.14,0 -2.23,0.28 -3.26,0.83 -1.04,0.56 -1.84,1.32 -2.4,2.28 -0.57,0.96 -0.86,1.97 -0.86,3.04 0,1.09 0.3,2.12 0.88,3.11 0.59,0.98 1.4,1.75 2.43,2.32 1.04,0.56 2.17,0.84 3.41,0.84 1.49,0 2.76,-0.42 3.79,-1.26 1.03,-0.84 1.65,-1.93 1.84,-3.26l-4.63 0 0 -1.42 6.27 0c-0.02,2.24 -0.68,4.02 -2,5.34 -1.33,1.32 -3.09,1.98 -5.31,1.98 -2.69,0 -4.81,-0.92 -6.38,-2.75 -1.21,-1.4 -1.81,-3.03 -1.81,-4.88 0,-1.37 0.35,-2.65 1.04,-3.83 0.69,-1.19 1.64,-2.11 2.85,-2.78 1.2,-0.66 2.57,-1 4.09,-1 1.23,0 2.39,0.22 3.48,0.67 1.09,0.44 2.15,1.15 3.19,2.13z"/>
  <polygon id="2" class="fil0" points="261.22,108.84 269.52,108.84 269.52,110.25 262.67,110.25 262.67,114.8 269.46,114.8 269.46,116.21 262.67,116.21 262.67,121.93 269.46,121.93 269.46,123.34 261.22,123.34 "/>
  <polygon id="3" class="fil0" points="279.47,123.34 279.47,108.84 279.78,108.84 289.43,119.93 289.43,108.84 290.89,108.84 290.89,123.34 290.56,123.34 280.97,112.34 280.97,123.34 "/>
  <path id="4" class="fil0" d="M315.33 111.51l-1.14 0.88c-0.63,-0.82 -1.39,-1.44 -2.28,-1.87 -0.88,-0.42 -1.85,-0.63 -2.91,-0.63 -1.15,0 -2.22,0.28 -3.21,0.83 -0.99,0.56 -1.75,1.3 -2.29,2.24 -0.54,0.94 -0.82,1.99 -0.82,3.16 0,1.77 0.61,3.25 1.82,4.43 1.22,1.19 2.74,1.78 4.59,1.78 2.03,0 3.73,-0.79 5.1,-2.38l1.14 0.87c-0.72,0.92 -1.62,1.63 -2.7,2.13 -1.09,0.5 -2.29,0.76 -3.63,0.76 -2.54,0 -4.54,-0.85 -6.01,-2.54 -1.22,-1.42 -1.84,-3.15 -1.84,-5.17 0,-2.12 0.74,-3.9 2.23,-5.35 1.49,-1.45 3.36,-2.18 5.6,-2.18 1.36,0 2.58,0.27 3.67,0.8 1.09,0.54 1.99,1.28 2.68,2.24z"/>
  <polygon id="5" class="fil0" points="325.46,108.84 326.92,108.84 326.92,123.34 325.46,123.34 "/>
  <path id="6" class="fil0" d="M343.59 108.84l6.77 14.5 -1.56 0 -2.27 -4.77 -6.28 0 -2.26 4.77 -1.61 0 6.85 -14.5 0.36 0zm-0.18 3.04l-2.5 5.28 4.98 0 -2.48 -5.28z"/>
  <polygon id="7" class="fil0" points="372.62,108.84 374.08,108.84 374.08,123.34 372.62,123.34 "/>
  <polygon id="8" class="fil0" points="384.83,123.34 384.83,108.84 385.15,108.84 394.79,119.93 394.79,108.84 396.25,108.84 396.25,123.34 395.92,123.34 386.33,112.34 386.33,123.34 "/>
  <polygon id="9" class="fil0" points="406.55,123.34 408.56,108.84 408.86,108.84 414.77,120.74 420.63,108.84 420.85,108.84 422.94,123.34 421.53,123.34 420.08,112.96 414.94,123.34 414.56,123.34 409.37,112.88 407.98,123.34 "/>
  <path id="10" class="fil0" d="M440.09 108.47c2.19,0 4.03,0.74 5.51,2.2 1.48,1.47 2.22,3.27 2.22,5.41 0,2.13 -0.74,3.93 -2.22,5.41 -1.47,1.48 -3.27,2.22 -5.4,2.22 -2.15,0 -3.96,-0.74 -5.44,-2.21 -1.48,-1.47 -2.22,-3.26 -2.22,-5.35 0,-1.39 0.34,-2.68 1.01,-3.87 0.68,-1.19 1.6,-2.12 2.76,-2.8 1.16,-0.67 2.42,-1.01 3.78,-1.01zm0.06 1.42c-1.07,0 -2.09,0.28 -3.05,0.83 -0.96,0.56 -1.71,1.31 -2.25,2.26 -0.54,0.95 -0.81,2 -0.81,3.17 0,1.72 0.59,3.18 1.79,4.36 1.19,1.19 2.64,1.78 4.32,1.78 1.13,0 2.17,-0.27 3.12,-0.82 0.96,-0.54 1.71,-1.29 2.25,-2.24 0.53,-0.94 0.8,-1.99 0.8,-3.15 0,-1.15 -0.27,-2.19 -0.8,-3.12 -0.54,-0.93 -1.3,-1.68 -2.27,-2.24 -0.97,-0.55 -2.01,-0.83 -3.1,-0.83z"/>
  <path id="11" class="fil0" d="M458.19 108.84l2.86 0c1.15,0 2.04,0.13 2.65,0.4 0.62,0.28 1.11,0.7 1.47,1.26 0.36,0.56 0.54,1.19 0.54,1.88 0,0.65 -0.16,1.23 -0.47,1.76 -0.32,0.53 -0.78,0.96 -1.38,1.29 0.75,0.25 1.33,0.55 1.73,0.9 0.41,0.34 0.72,0.76 0.95,1.25 0.22,0.49 0.34,1.02 0.34,1.6 0,1.16 -0.42,2.15 -1.28,2.95 -0.85,0.81 -1.99,1.21 -3.42,1.21l-3.99 0 0 -14.5zm1.42 1.41l0 4.65 0.83 0c1.01,0 1.75,-0.1 2.23,-0.28 0.47,-0.19 0.85,-0.49 1.12,-0.89 0.28,-0.41 0.42,-0.86 0.42,-1.35 0,-0.66 -0.23,-1.18 -0.69,-1.56 -0.47,-0.38 -1.21,-0.57 -2.23,-0.57l-1.68 0zm0 6.1l0 5.58 1.8 0c1.06,0 1.84,-0.11 2.33,-0.31 0.5,-0.21 0.89,-0.54 1.19,-0.98 0.3,-0.44 0.45,-0.92 0.45,-1.43 0,-0.65 -0.21,-1.21 -0.63,-1.69 -0.42,-0.48 -1,-0.81 -1.74,-0.99 -0.49,-0.12 -1.35,-0.18 -2.58,-0.18l-0.82 0z"/>
  <polygon id="12" class="fil0" points="476.97,108.84 478.43,108.84 478.43,123.34 476.97,123.34 "/>
  <polygon id="13" class="fil0" points="489.16,108.84 490.62,108.84 490.62,121.93 496.21,121.93 496.21,123.34 489.16,123.34 "/>
  <polygon id="14" class="fil0" points="505.71,108.84 507.17,108.84 507.17,123.34 505.71,123.34 "/>
  <path id="15" class="fil0" d="M523.84 108.84l6.77 14.5 -1.56 0 -2.27 -4.77 -6.28 0 -2.26 4.77 -1.61 0 6.85 -14.5 0.36 0zm-0.18 3.04l-2.5 5.28 4.98 0 -2.48 -5.28z"/>
  <path id="16" class="fil0" d="M540.35 108.84l2.89 0c1.62,0 2.71,0.06 3.28,0.19 0.87,0.2 1.57,0.62 2.11,1.27 0.54,0.65 0.81,1.45 0.81,2.39 0,0.79 -0.19,1.48 -0.56,2.08 -0.37,0.6 -0.9,1.05 -1.6,1.36 -0.69,0.3 -1.64,0.46 -2.86,0.46l5.22 6.75 -1.78 0 -5.22 -6.75 -0.84 0 0 6.75 -1.45 0 0 -14.5zm1.45 1.41l0 4.93 2.51 0.02c0.97,0 1.69,-0.09 2.15,-0.28 0.47,-0.18 0.83,-0.47 1.09,-0.88 0.26,-0.4 0.39,-0.85 0.39,-1.36 0,-0.48 -0.13,-0.92 -0.39,-1.32 -0.27,-0.4 -0.61,-0.68 -1.04,-0.85 -0.43,-0.18 -1.14,-0.26 -2.14,-0.26l-2.57 0z"/>
  <polygon id="17" class="fil0" points="559.75,108.84 561.21,108.84 561.21,123.34 559.75,123.34 "/>
  <path id="18" class="fil0" d="M577.88 108.84l6.77 14.5 -1.56 0 -2.27 -4.77 -6.28 0 -2.26 4.77 -1.61 0 6.85 -14.5 0.36 0zm-0.18 3.04l-2.5 5.28 4.98 0 -2.48 -5.28z"/>
  <g id="_456576968">
   <path class="fil1" d="M79.36 125.48c4.16,2.77 25.52,9.47 31.53,10.57l0.97 -0.05c0.05,-0.11 0.11,-0.37 0.13,-0.31 0.31,0.8 0.22,-0.48 0.26,-0.57 0.04,-0.1 0.31,-0.81 0.31,-0.81 0.33,-1.01 0.26,-1.02 0.47,-2.15l7.72 -35.98c3.04,-11.87 5.28,-27.77 8.36,-40.27l7.44 -36.41c0.49,-3.18 2.32,-9.61 2.48,-12.15 -1.14,-0.67 -39.82,-7.49 -40.66,-7.35 -2.07,0.37 -0.77,1.41 -1.43,4.77 -0.26,1.3 -0.84,3.39 -1.02,4.75 -1.29,9.81 -2.53,22.83 -4.26,32.16 -0.63,3.38 -0.86,7.27 -1.4,10.53l-10.9 73.27z"/>
   <path class="fil2" d="M107.59 135.49c1.39,1.26 1.4,0.43 3.46,0.95 1.31,0.33 -0.33,0.19 1.69,0.51 0.6,0.09 1.6,0.1 2.24,0.13 5.46,0.27 16.28,3.44 25.11,2.58l9.67 -22.93c2.09,-5.04 26.83,-66.7 27.58,-69.85l-37.3 -13.37c-0.84,0.88 -14.85,45.94 -16.32,50.91l-15.14 49.91c-0.69,1.68 0.17,0.75 -0.99,1.16z"/>
   <path class="fil3" d="M53.46 122.55c1.49,0.32 0.97,0.35 2.18,-0.01 1.03,-0.31 -0.6,-0.43 2.04,-0.52 1.18,-0.05 3.75,-0.12 4.84,0.03 0.92,0.11 2.64,0.82 3.65,1.16l4.9 2.16c0.08,0.04 0.17,0.1 0.26,0.13 2.06,0.84 0.47,-0.71 3.82,1.43l4.85 2.24c2.62,1.14 2.15,1.43 4.41,1.47 0.45,-9.53 2.71,-95.15 1.72,-97.63 -2.3,-1.06 -32.59,0.14 -37.86,0.16 -0.12,4.41 1.99,38.07 2.45,44.83 0.5,7.44 0.91,14.9 1.26,22.24l1.48 22.31z"/>
   <g>
    <path class="fil4" d="M36.57 76.96c-25.87,6.23 -47.4,12.84 -11.92,31.56 36.4,19.22 65.4,22.84 105.14,29.1 9.55,0.9 76.96,5.52 65.11,-20.25l-2.98 -5.44c4.77,3.98 9.94,8.1 7.86,15.44 -7.46,26.22 -80.82,18.53 -101.41,15.73 -24.74,-3.36 -86.96,-21.91 -97.12,-46.42 -8.19,-19.73 26.3,-19.82 35.32,-19.72z"/>
   </g>
   <path class="fil5" d="M36.57 76.96c-44.6,2.37 -39.42,21.22 -13.78,35.03 41.06,22.12 60.94,24.06 106.42,30.1 27.24,3.46 89.29,-3.38 62.71,-30.16"/>
   <g>
    <path class="fil6" d="M42.42 108.67c32.44,13.92 111.83,42.33 146.24,22.28 13.56,-7.89 2.66,-17.67 -5.02,-25.41 11.58,7.56 22.28,18.58 7.01,28.64 -35.29,23.26 -117.35,-3.62 -151.85,-17.45 -2.23,-1 -3.22,-3.62 -2.22,-5.84 1,-2.23 3.61,-3.22 5.84,-2.22z"/>
   </g>
   <path class="fil5" d="M40.61 112.7c106.52,47.9 188.79,24.2 143.03,-7.16"/>
  </g>
  <polygon class="fil0" points="220.04,39.31 250.32,39.31 250.32,44.46 225.34,44.46 225.34,61.04 250.1,61.04 250.1,66.2 225.34,66.2 225.34,87.05 250.1,87.05 250.1,92.21 220.04,92.21 "/>
  <polygon id="1" class="fil0" points="260.02,39.31 265.33,39.31 265.33,87.05 285.74,87.05 285.74,92.21 260.02,92.21 "/>
  <path id="2" class="fil0" d="M314.8 39.31l10.55 0c6.04,0 10.13,0.25 12.24,0.78 3.02,0.75 5.49,2.27 7.41,4.59 1.92,2.31 2.88,5.22 2.88,8.72 0,3.53 -0.93,6.43 -2.81,8.72 -1.87,2.29 -4.45,3.82 -7.73,4.62 -2.4,0.58 -6.88,0.86 -13.46,0.86l-3.78 0 0 24.61 -5.3 0 0 -52.9zm5.3 5.15l0 17.98 8.97 0.11c3.62,0 6.27,-0.33 7.96,-0.99 1.68,-0.66 3,-1.72 3.96,-3.19 0.96,-1.48 1.44,-3.14 1.44,-4.95 0,-1.77 -0.48,-3.41 -1.44,-4.88 -0.96,-1.47 -2.23,-2.52 -3.81,-3.14 -1.57,-0.63 -4.13,-0.94 -7.72,-0.94l-9.36 0z"/>
  <path id="3" class="fil0" d="M384.18 37.98c8.01,0 14.71,2.68 20.11,8.02 5.39,5.34 8.09,11.92 8.09,19.73 0,7.75 -2.69,14.32 -8.07,19.72 -5.39,5.39 -11.95,8.09 -19.7,8.09 -7.83,0 -14.45,-2.69 -19.85,-8.06 -5.39,-5.36 -8.09,-11.86 -8.09,-19.49 0,-5.08 1.23,-9.79 3.69,-14.13 2.45,-4.34 5.8,-7.74 10.05,-10.2 4.24,-2.45 8.83,-3.68 13.77,-3.68zm0.23 5.16c-3.9,0 -7.61,1.02 -11.12,3.06 -3.5,2.03 -6.24,4.77 -8.22,8.22 -1.96,3.47 -2.95,7.31 -2.95,11.56 0,6.28 2.18,11.58 6.54,15.9 4.36,4.34 9.61,6.5 15.75,6.5 4.12,0 7.91,-0.99 11.4,-2.98 3.5,-1.99 6.23,-4.72 8.18,-8.17 1.95,-3.45 2.94,-7.28 2.94,-11.51 0,-4.2 -0.99,-7.99 -2.94,-11.38 -1.95,-3.39 -4.72,-6.11 -8.26,-8.14 -3.55,-2.04 -7.32,-3.06 -11.32,-3.06z"/>
  <path id="4" class="fil0" d="M423.85 39.31l10.56 0c5.88,0 9.87,0.24 11.96,0.72 3.16,0.71 5.71,2.25 7.67,4.62 1.98,2.36 2.96,5.27 2.96,8.72 0,2.87 -0.67,5.4 -2.03,7.57 -1.36,2.19 -3.3,3.84 -5.83,4.95 -2.51,1.12 -6,1.69 -10.45,1.71l19.05 24.61 -6.5 0 -19.04 -24.61 -3.05 0 0 24.61 -5.3 0 0 -52.9zm5.3 5.15l0 17.98 9.14 0.08c3.55,0 6.16,-0.33 7.86,-1.01 1.69,-0.68 3.02,-1.74 3.98,-3.22 0.94,-1.47 1.42,-3.12 1.42,-4.95 0,-1.77 -0.48,-3.39 -1.45,-4.84 -0.96,-1.45 -2.22,-2.48 -3.79,-3.1 -1.56,-0.63 -4.17,-0.94 -7.8,-0.94l-9.36 0z"/>
  <polygon id="5" class="fil0" points="463.6,44.46 463.6,39.31 492.55,39.31 492.55,44.46 480.76,44.46 480.76,92.21 475.39,92.21 475.39,44.46 "/>
  <path id="6" class="fil0" d="M522.42 39.31l24.68 52.9 -5.68 0 -8.27 -17.39 -22.93 0 -8.21 17.39 -5.9 0 24.98 -52.9 1.33 0zm-0.67 11.1l-9.1 19.25 18.17 0 -9.07 -19.25z"/>
  <polygon id="7" class="fil0" points="555.81,39.31 561.11,39.31 561.11,87.05 581.52,87.05 581.52,92.21 555.81,92.21 "/>
  <path class="fil0" d="M219.73 108.84l6.77 14.5 -1.56 0 -2.27 -4.77 -6.28 0 -2.26 4.77 -1.61 0 6.85 -14.5 0.36 0zm-0.18 3.04l-2.5 5.28 4.98 0 -2.48 -5.28z"/>
  <path id="1" class="fil0" d="M250.18 111.27l-1.13 1.06c-0.81,-0.79 -1.7,-1.4 -2.66,-1.81 -0.97,-0.41 -1.91,-0.61 -2.83,-0.61 -1.14,0 -2.23,0.28 -3.26,0.83 -1.04,0.56 -1.84,1.32 -2.4,2.28 -0.57,0.96 -0.86,1.97 -0.86,3.04 0,1.09 0.3,2.12 0.88,3.11 0.59,0.98 1.4,1.75 2.43,2.32 1.04,0.56 2.17,0.84 3.41,0.84 1.49,0 2.76,-0.42 3.79,-1.26 1.03,-0.84 1.65,-1.93 1.84,-3.26l-4.63 0 0 -1.42 6.27 0c-0.02,2.24 -0.68,4.02 -2,5.34 -1.33,1.32 -3.09,1.98 -5.31,1.98 -2.69,0 -4.81,-0.92 -6.38,-2.75 -1.21,-1.4 -1.81,-3.03 -1.81,-4.88 0,-1.37 0.35,-2.65 1.04,-3.83 0.69,-1.19 1.64,-2.11 2.85,-2.78 1.2,-0.66 2.57,-1 4.09,-1 1.23,0 2.39,0.22 3.48,0.67 1.09,0.44 2.15,1.15 3.19,2.13z"/>
  <polygon id="2" class="fil0" points="261.22,108.84 269.52,108.84 269.52,110.25 262.67,110.25 262.67,114.8 269.46,114.8 269.46,116.21 262.67,116.21 262.67,121.93 269.46,121.93 269.46,123.34 261.22,123.34 "/>
  <polygon id="3" class="fil0" points="279.47,123.34 279.47,108.84 279.78,108.84 289.43,119.93 289.43,108.84 290.89,108.84 290.89,123.34 290.56,123.34 280.97,112.34 280.97,123.34 "/>
  <path id="4" class="fil0" d="M315.33 111.51l-1.14 0.88c-0.63,-0.82 -1.39,-1.44 -2.28,-1.87 -0.88,-0.42 -1.85,-0.63 -2.91,-0.63 -1.15,0 -2.22,0.28 -3.21,0.83 -0.99,0.56 -1.75,1.3 -2.29,2.24 -0.54,0.94 -0.82,1.99 -0.82,3.16 0,1.77 0.61,3.25 1.82,4.43 1.22,1.19 2.74,1.78 4.59,1.78 2.03,0 3.73,-0.79 5.1,-2.38l1.14 0.87c-0.72,0.92 -1.62,1.63 -2.7,2.13 -1.09,0.5 -2.29,0.76 -3.63,0.76 -2.54,0 -4.54,-0.85 -6.01,-2.54 -1.22,-1.42 -1.84,-3.15 -1.84,-5.17 0,-2.12 0.74,-3.9 2.23,-5.35 1.49,-1.45 3.36,-2.18 5.6,-2.18 1.36,0 2.58,0.27 3.67,0.8 1.09,0.54 1.99,1.28 2.68,2.24z"/>
  <polygon id="5" class="fil0" points="325.46,108.84 326.92,108.84 326.92,123.34 325.46,123.34 "/>
  <path id="6" class="fil0" d="M343.59 108.84l6.77 14.5 -1.56 0 -2.27 -4.77 -6.28 0 -2.26 4.77 -1.61 0 6.85 -14.5 0.36 0zm-0.18 3.04l-2.5 5.28 4.98 0 -2.48 -5.28z"/>
  <polygon id="7" class="fil0" points="372.62,108.84 374.08,108.84 374.08,123.34 372.62,123.34 "/>
  <polygon id="8" class="fil0" points="384.83,123.34 384.83,108.84 385.15,108.84 394.79,119.93 394.79,108.84 396.25,108.84 396.25,123.34 395.92,123.34 386.33,112.34 386.33,123.34 "/>
  <polygon id="9" class="fil0" points="406.55,123.34 408.56,108.84 408.86,108.84 414.77,120.74 420.63,108.84 420.85,108.84 422.94,123.34 421.53,123.34 420.08,112.96 414.94,123.34 414.56,123.34 409.37,112.88 407.98,123.34 "/>
  <path id="10" class="fil0" d="M440.09 108.47c2.19,0 4.03,0.74 5.51,2.2 1.48,1.47 2.22,3.27 2.22,5.41 0,2.13 -0.74,3.93 -2.22,5.41 -1.47,1.48 -3.27,2.22 -5.4,2.22 -2.15,0 -3.96,-0.74 -5.44,-2.21 -1.48,-1.47 -2.22,-3.26 -2.22,-5.35 0,-1.39 0.34,-2.68 1.01,-3.87 0.68,-1.19 1.6,-2.12 2.76,-2.8 1.16,-0.67 2.42,-1.01 3.78,-1.01zm0.06 1.42c-1.07,0 -2.09,0.28 -3.05,0.83 -0.96,0.56 -1.71,1.31 -2.25,2.26 -0.54,0.95 -0.81,2 -0.81,3.17 0,1.72 0.59,3.18 1.79,4.36 1.19,1.19 2.64,1.78 4.32,1.78 1.13,0 2.17,-0.27 3.12,-0.82 0.96,-0.54 1.71,-1.29 2.25,-2.24 0.53,-0.94 0.8,-1.99 0.8,-3.15 0,-1.15 -0.27,-2.19 -0.8,-3.12 -0.54,-0.93 -1.3,-1.68 -2.27,-2.24 -0.97,-0.55 -2.01,-0.83 -3.1,-0.83z"/>
  <path id="11" class="fil0" d="M458.19 108.84l2.86 0c1.15,0 2.04,0.13 2.65,0.4 0.62,0.28 1.11,0.7 1.47,1.26 0.36,0.56 0.54,1.19 0.54,1.88 0,0.65 -0.16,1.23 -0.47,1.76 -0.32,0.53 -0.78,0.96 -1.38,1.29 0.75,0.25 1.33,0.55 1.73,0.9 0.41,0.34 0.72,0.76 0.95,1.25 0.22,0.49 0.34,1.02 0.34,1.6 0,1.16 -0.42,2.15 -1.28,2.95 -0.85,0.81 -1.99,1.21 -3.42,1.21l-3.99 0 0 -14.5zm1.42 1.41l0 4.65 0.83 0c1.01,0 1.75,-0.1 2.23,-0.28 0.47,-0.19 0.85,-0.49 1.12,-0.89 0.28,-0.41 0.42,-0.86 0.42,-1.35 0,-0.66 -0.23,-1.18 -0.69,-1.56 -0.47,-0.38 -1.21,-0.57 -2.23,-0.57l-1.68 0zm0 6.1l0 5.58 1.8 0c1.06,0 1.84,-0.11 2.33,-0.31 0.5,-0.21 0.89,-0.54 1.19,-0.98 0.3,-0.44 0.45,-0.92 0.45,-1.43 0,-0.65 -0.21,-1.21 -0.63,-1.69 -0.42,-0.48 -1,-0.81 -1.74,-0.99 -0.49,-0.12 -1.35,-0.18 -2.58,-0.18l-0.82 0z"/>
  <polygon id="12" class="fil0" points="476.97,108.84 478.43,108.84 478.43,123.34 476.97,123.34 "/>
  <polygon id="13" class="fil0" points="489.16,108.84 490.62,108.84 490.62,121.93 496.21,121.93 496.21,123.34 489.16,123.34 "/>
  <polygon id="14" class="fil0" points="505.71,108.84 507.17,108.84 507.17,123.34 505.71,123.34 "/>
  <path id="15" class="fil0" d="M523.84 108.84l6.77 14.5 -1.56 0 -2.27 -4.77 -6.28 0 -2.26 4.77 -1.61 0 6.85 -14.5 0.36 0zm-0.18 3.04l-2.5 5.28 4.98 0 -2.48 -5.28z"/>
  <path id="16" class="fil0" d="M540.35 108.84l2.89 0c1.62,0 2.71,0.06 3.28,0.19 0.87,0.2 1.57,0.62 2.11,1.27 0.54,0.65 0.81,1.45 0.81,2.39 0,0.79 -0.19,1.48 -0.56,2.08 -0.37,0.6 -0.9,1.05 -1.6,1.36 -0.69,0.3 -1.64,0.46 -2.86,0.46l5.22 6.75 -1.78 0 -5.22 -6.75 -0.84 0 0 6.75 -1.45 0 0 -14.5zm1.45 1.41l0 4.93 2.51 0.02c0.97,0 1.69,-0.09 2.15,-0.28 0.47,-0.18 0.83,-0.47 1.09,-0.88 0.26,-0.4 0.39,-0.85 0.39,-1.36 0,-0.48 -0.13,-0.92 -0.39,-1.32 -0.27,-0.4 -0.61,-0.68 -1.04,-0.85 -0.43,-0.18 -1.14,-0.26 -2.14,-0.26l-2.57 0z"/>
  <polygon id="17" class="fil0" points="559.75,108.84 561.21,108.84 561.21,123.34 559.75,123.34 "/>
  <path id="18" class="fil0" d="M577.88 108.84l6.77 14.5 -1.56 0 -2.27 -4.77 -6.28 0 -2.26 4.77 -1.61 0 6.85 -14.5 0.36 0zm-0.18 3.04l-2.5 5.28 4.98 0 -2.48 -5.28z"/>
  <g id="_455954208">
   <path class="fil1" d="M79.36 125.48c4.16,2.77 25.52,9.47 31.53,10.57l0.97 -0.05c0.05,-0.11 0.11,-0.37 0.13,-0.31 0.31,0.8 0.22,-0.48 0.26,-0.57 0.04,-0.1 0.31,-0.81 0.31,-0.81 0.33,-1.01 0.26,-1.02 0.47,-2.15l7.72 -35.98c3.04,-11.87 5.28,-27.77 8.36,-40.27l7.44 -36.41c0.49,-3.18 2.32,-9.61 2.48,-12.15 -1.14,-0.67 -39.82,-7.49 -40.66,-7.35 -2.07,0.37 -0.77,1.41 -1.43,4.77 -0.26,1.3 -0.84,3.39 -1.02,4.75 -1.29,9.81 -2.53,22.83 -4.26,32.16 -0.63,3.38 -0.86,7.27 -1.4,10.53l-10.9 73.27z"/>
   <path class="fil2" d="M107.59 135.49c1.39,1.26 1.4,0.43 3.46,0.95 1.31,0.33 -0.33,0.19 1.69,0.51 0.6,0.09 1.6,0.1 2.24,0.13 5.46,0.27 16.28,3.44 25.11,2.58l9.67 -22.93c2.09,-5.04 26.83,-66.7 27.58,-69.85l-37.3 -13.37c-0.84,0.88 -14.85,45.94 -16.32,50.91l-15.14 49.91c-0.69,1.68 0.17,0.75 -0.99,1.16z"/>
   <path class="fil3" d="M53.46 122.55c1.49,0.32 0.97,0.35 2.18,-0.01 1.03,-0.31 -0.6,-0.43 2.04,-0.52 1.18,-0.05 3.75,-0.12 4.84,0.03 0.92,0.11 2.64,0.82 3.65,1.16l4.9 2.16c0.08,0.04 0.17,0.1 0.26,0.13 2.06,0.84 0.47,-0.71 3.82,1.43l4.85 2.24c2.62,1.14 2.15,1.43 4.41,1.47 0.45,-9.53 2.71,-95.15 1.72,-97.63 -2.3,-1.06 -32.59,0.14 -37.86,0.16 -0.12,4.41 1.99,38.07 2.45,44.83 0.5,7.44 0.91,14.9 1.26,22.24l1.48 22.31z"/>
   <g>
    <path class="fil4" d="M36.57 76.96c-25.87,6.23 -47.4,12.84 -11.92,31.56 36.4,19.22 65.4,22.84 105.14,29.1 9.55,0.9 76.96,5.52 65.11,-20.25l-2.98 -5.44c4.77,3.98 9.94,8.1 7.86,15.44 -7.46,26.22 -80.82,18.53 -101.41,15.73 -24.74,-3.36 -86.96,-21.91 -97.12,-46.42 -8.19,-19.73 26.3,-19.82 35.32,-19.72z"/>
   </g>
   <path class="fil5" d="M36.57 76.96c-44.6,2.37 -39.42,21.22 -13.78,35.03 41.06,22.12 60.94,24.06 106.42,30.1 27.24,3.46 89.29,-3.38 62.71,-30.16"/>
   <g>
    <path class="fil6" d="M42.42 108.67c32.44,13.92 111.83,42.33 146.24,22.28 13.56,-7.89 2.66,-17.67 -5.02,-25.41 11.58,7.56 22.28,18.58 7.01,28.64 -35.29,23.26 -117.35,-3.62 -151.85,-17.45 -2.23,-1 -3.22,-3.62 -2.22,-5.84 1,-2.23 3.61,-3.22 5.84,-2.22z"/>
   </g>
   <path class="fil5" d="M40.61 112.7c106.52,47.9 188.79,24.2 143.03,-7.16"/>
  </g>
  <polygon class="fil0" points="220.04,39.31 250.32,39.31 250.32,44.46 225.34,44.46 225.34,61.04 250.1,61.04 250.1,66.2 225.34,66.2 225.34,87.05 250.1,87.05 250.1,92.21 220.04,92.21 "/>
  <polygon id="1" class="fil0" points="260.02,39.31 265.33,39.31 265.33,87.05 285.74,87.05 285.74,92.21 260.02,92.21 "/>
  <path id="2" class="fil0" d="M314.8 39.31l10.55 0c6.04,0 10.13,0.25 12.24,0.78 3.02,0.75 5.49,2.27 7.41,4.59 1.92,2.31 2.88,5.22 2.88,8.72 0,3.53 -0.93,6.43 -2.81,8.72 -1.87,2.29 -4.45,3.82 -7.73,4.62 -2.4,0.58 -6.88,0.86 -13.46,0.86l-3.78 0 0 24.61 -5.3 0 0 -52.9zm5.3 5.15l0 17.98 8.97 0.11c3.62,0 6.27,-0.33 7.96,-0.99 1.68,-0.66 3,-1.72 3.96,-3.19 0.96,-1.48 1.44,-3.14 1.44,-4.95 0,-1.77 -0.48,-3.41 -1.44,-4.88 -0.96,-1.47 -2.23,-2.52 -3.81,-3.14 -1.57,-0.63 -4.13,-0.94 -7.72,-0.94l-9.36 0z"/>
  <path id="3" class="fil0" d="M384.18 37.98c8.01,0 14.71,2.68 20.11,8.02 5.39,5.34 8.09,11.92 8.09,19.73 0,7.75 -2.69,14.32 -8.07,19.72 -5.39,5.39 -11.95,8.09 -19.7,8.09 -7.83,0 -14.45,-2.69 -19.85,-8.06 -5.39,-5.36 -8.09,-11.86 -8.09,-19.49 0,-5.08 1.23,-9.79 3.69,-14.13 2.45,-4.34 5.8,-7.74 10.05,-10.2 4.24,-2.45 8.83,-3.68 13.77,-3.68zm0.23 5.16c-3.9,0 -7.61,1.02 -11.12,3.06 -3.5,2.03 -6.24,4.77 -8.22,8.22 -1.96,3.47 -2.95,7.31 -2.95,11.56 0,6.28 2.18,11.58 6.54,15.9 4.36,4.34 9.61,6.5 15.75,6.5 4.12,0 7.91,-0.99 11.4,-2.98 3.5,-1.99 6.23,-4.72 8.18,-8.17 1.95,-3.45 2.94,-7.28 2.94,-11.51 0,-4.2 -0.99,-7.99 -2.94,-11.38 -1.95,-3.39 -4.72,-6.11 -8.26,-8.14 -3.55,-2.04 -7.32,-3.06 -11.32,-3.06z"/>
  <path id="4" class="fil0" d="M423.85 39.31l10.56 0c5.88,0 9.87,0.24 11.96,0.72 3.16,0.71 5.71,2.25 7.67,4.62 1.98,2.36 2.96,5.27 2.96,8.72 0,2.87 -0.67,5.4 -2.03,7.57 -1.36,2.19 -3.3,3.84 -5.83,4.95 -2.51,1.12 -6,1.69 -10.45,1.71l19.05 24.61 -6.5 0 -19.04 -24.61 -3.05 0 0 24.61 -5.3 0 0 -52.9zm5.3 5.15l0 17.98 9.14 0.08c3.55,0 6.16,-0.33 7.86,-1.01 1.69,-0.68 3.02,-1.74 3.98,-3.22 0.94,-1.47 1.42,-3.12 1.42,-4.95 0,-1.77 -0.48,-3.39 -1.45,-4.84 -0.96,-1.45 -2.22,-2.48 -3.79,-3.1 -1.56,-0.63 -4.17,-0.94 -7.8,-0.94l-9.36 0z"/>
  <polygon id="5" class="fil0" points="463.6,44.46 463.6,39.31 492.55,39.31 492.55,44.46 480.76,44.46 480.76,92.21 475.39,92.21 475.39,44.46 "/>
  <path id="6" class="fil0" d="M522.42 39.31l24.68 52.9 -5.68 0 -8.27 -17.39 -22.93 0 -8.21 17.39 -5.9 0 24.98 -52.9 1.33 0zm-0.67 11.1l-9.1 19.25 18.17 0 -9.07 -19.25z"/>
  <polygon id="7" class="fil0" points="555.81,39.31 561.11,39.31 561.11,87.05 581.52,87.05 581.52,92.21 555.81,92.21 "/>
 </g>
</svg>
