<svg width="14" height="14" viewBox="0 0 14 14" fill="none" xmlns="http://www.w3.org/2000/svg">
<g clip-path="url(#clip0)">
<path d="M13.619 10.2746L11.6652 8.32085C10.9674 7.62308 9.78124 7.90221 9.50214 8.80928C9.29281 9.4373 8.59504 9.78618 7.96706 9.6466C6.57153 9.29772 4.68756 7.48353 4.33868 6.01822C4.12935 5.39021 4.54801 4.69244 5.176 4.48314C6.08309 4.20403 6.3622 3.01783 5.66443 2.32007L3.71069 0.366327C3.15248 -0.122109 2.31516 -0.122109 1.82672 0.366327L0.500972 1.69208C-0.824782 3.08761 0.640525 6.78576 3.92002 10.0653C7.19951 13.3448 10.8977 14.8799 12.2932 13.4843L13.619 12.1586C14.1074 11.6003 14.1074 10.763 13.619 10.2746Z" fill="white"/>
</g>
<defs>
<clipPath id="clip0">
<rect width="14" height="14" fill="white"/>
</clipPath>
</defs>
</svg>
