<svg width="25" height="25" viewBox="0 0 25 25" fill="none" xmlns="http://www.w3.org/2000/svg">
<path d="M13.25 2.5V1.875C13.25 1.52981 12.8778 1.25 12.4186 1.25H0.831425C0.372229 1.25 0 1.52981 0 1.875V2.5C0 2.84519 0.372229 3.125 0.831425 3.125H12.4186C12.8778 3.125 13.25 2.84519 13.25 2.5Z" fill="#00AFEF"/>
<path d="M10.9142 6.25H0.835787C0.374182 6.25 0 6.52981 0 6.875V7.5C0 7.84519 0.374182 8.125 0.835787 8.125H10.9142C11.3758 8.125 11.75 7.84519 11.75 7.5V6.875C11.75 6.52981 11.3758 6.25 10.9142 6.25Z" fill="#00AFEF"/>
<path d="M9.29375 11.25H0.831247C0.372149 11.25 0 11.5298 0 11.875V12.5C0 12.8452 0.372149 13.125 0.831247 13.125H9.29375C9.75285 13.125 10.125 12.8452 10.125 12.5V11.875C10.125 11.5298 9.75285 11.25 9.29375 11.25Z" fill="#00AFEF"/>
<path d="M7.78783 16.25H0.837175C0.374803 16.25 0 16.5298 0 16.875V17.5C0 17.8452 0.374803 18.125 0.837175 18.125H7.78783C8.25011 18.125 8.625 17.8452 8.625 17.5V16.875C8.625 16.5298 8.2502 16.25 7.78783 16.25Z" fill="#00AFEF"/>
<path d="M6.16908 21.25H0.83092C0.372003 21.25 0 21.5298 0 21.875V22.5C0 22.8452 0.372003 23.125 0.83092 23.125H6.16908C6.62791 23.125 7 22.8452 7 22.5V21.875C7 21.5298 6.628 21.25 6.16908 21.25Z" fill="#00AFEF"/>
<path d="M24.4322 17.3945L23.8613 16.8282C23.7099 16.6781 23.5045 16.5937 23.2903 16.5937C23.0762 16.5937 22.8708 16.6781 22.7193 16.8282L19.9423 19.5827V1.52594C19.9423 1.08362 19.5808 0.725067 19.1349 0.725067H18.3274C17.8815 0.725067 17.52 1.08362 17.52 1.52594V19.5826L14.743 16.8282C14.5915 16.678 14.3862 16.5936 14.172 16.5936C13.9579 16.5936 13.7525 16.678 13.6011 16.8282L13.0301 17.3945C12.7149 17.7072 12.7149 18.2143 13.0301 18.5271L18.1602 23.6155C18.3179 23.7719 18.5245 23.8501 18.7311 23.8501C18.9378 23.8501 19.1445 23.7719 19.3021 23.6155L24.4322 18.5271C24.7475 18.2143 24.7475 17.7072 24.4322 17.3945Z" fill="#00AFEF"/>
</svg>
