<svg width="30" height="30" viewBox="0 0 30 30" fill="none" xmlns="http://www.w3.org/2000/svg">
<g clip-path="url(#clip0)">
<path fill-rule="evenodd" clip-rule="evenodd" d="M0.00398606 15.01C0.00222928 6.7263 6.71258 0.00957741 14.992 0.00781971C17.7986 0.005066 20.5497 0.790637 22.932 2.27518C29.9598 6.65441 32.1087 15.9046 27.7318 22.9361C23.3548 29.9677 14.1094 32.1177 7.08162 27.7384L0.835291 29.9695C0.768007 29.9939 0.696975 30.0062 0.625416 30.0058C0.548293 30.0059 0.471873 29.9917 0.399904 29.9639C0.0780634 29.8396 -0.0821544 29.4778 0.0420495 29.1558L2.3744 23.1012C0.827269 20.6864 0.00457165 17.8784 0.00398606 15.01ZM19.6504 16.3205C20.6086 16.8204 22.139 17.5704 22.139 17.5704C22.3526 17.6757 22.4877 17.8933 22.4876 18.1317V19.3816C22.1733 21.2018 20.5859 22.5253 18.7398 22.5063C16.7772 22.5063 13.0095 20.1589 11.4266 18.5741C9.84378 16.9892 7.49644 13.2194 7.49644 11.2571C7.47747 9.41 8.80026 7.82175 10.6196 7.50736H11.8688C12.1045 7.50759 12.32 7.64053 12.426 7.85111C12.426 7.85234 13.1818 9.38223 13.6752 10.3422C14.2311 11.4271 13.188 12.7007 12.5934 13.3019C12.9517 14.2358 13.4928 15.0886 14.1849 15.8105C14.9066 16.5029 15.759 17.0442 16.6922 17.4029C17.2919 16.8079 18.5661 15.7618 19.6504 16.3205Z" fill="white"/>
</g>
<defs>
<clipPath id="clip0">
<rect width="30" height="30" fill="white"/>
</clipPath>
</defs>
</svg>
